<mxfile host="Electron" agent="Mozilla/5.0 (Windows NT 10.0; Win64; x64) AppleWebKit/537.36 (KHTML, like Gecko) draw.io/28.2.8 Chrome/140.0.7339.240 Electron/38.4.0 Safari/537.36" version="28.2.8">
  <diagram name="Page-1" id="EUsz3WUNXGCobBogdAoJ">
    <mxGraphModel dx="1426" dy="841" grid="1" gridSize="10" guides="1" tooltips="1" connect="1" arrows="1" fold="1" page="1" pageScale="1" pageWidth="850" pageHeight="1100" math="0" shadow="0">
      <root>
        <mxCell id="0" />
        <mxCell id="1" parent="0" />
        <mxCell id="vRwU5_9lx7jZgL3S7Ofa-451" value="" style="points=[[0.25,0,0],[0.5,0,0],[0.75,0,0],[1,0.25,0],[1,0.5,0],[1,0.75,0],[0.75,1,0],[0.5,1,0],[0.25,1,0],[0,0.75,0],[0,0.5,0],[0,0.25,0]];rounded=1;dashed=1;dashPattern=5 2 1 2;labelPosition=center;verticalLabelPosition=middle;align=center;verticalAlign=middle;fontSize=8;html=1;whiteSpace=wrap;fillColor=#f5f5f5;fontColor=#333333;strokeColor=#666666;" vertex="1" parent="1">
          <mxGeometry x="880" y="130" width="360" height="170" as="geometry" />
        </mxCell>
        <mxCell id="vRwU5_9lx7jZgL3S7Ofa-1" value="" style="rounded=1;whiteSpace=wrap;html=1;fillColor=#d5e8d4;strokeColor=#82b366;" vertex="1" parent="1">
          <mxGeometry x="110" y="500" width="260" height="230" as="geometry" />
        </mxCell>
        <mxCell id="vRwU5_9lx7jZgL3S7Ofa-3" value="" style="endArrow=classic;html=1;rounded=0;entryX=0;entryY=0.8;entryDx=0;entryDy=0;entryPerimeter=0;exitX=0.482;exitY=-0.002;exitDx=0;exitDy=0;exitPerimeter=0;" edge="1" parent="1" source="vRwU5_9lx7jZgL3S7Ofa-1" target="vRwU5_9lx7jZgL3S7Ofa-314">
          <mxGeometry width="50" height="50" relative="1" as="geometry">
            <mxPoint x="250" y="500" as="sourcePoint" />
            <mxPoint x="530.7" y="304.4000000000001" as="targetPoint" />
          </mxGeometry>
        </mxCell>
        <mxCell id="vRwU5_9lx7jZgL3S7Ofa-4" value="" style="endArrow=classic;html=1;rounded=0;exitX=0.024;exitY=0.96;exitDx=0;exitDy=0;dashed=1;exitPerimeter=0;entryX=0.649;entryY=-0.004;entryDx=0;entryDy=0;entryPerimeter=0;" edge="1" parent="1" source="vRwU5_9lx7jZgL3S7Ofa-314" target="vRwU5_9lx7jZgL3S7Ofa-1">
          <mxGeometry width="50" height="50" relative="1" as="geometry">
            <mxPoint x="547.0799999999999" y="315.6199999999999" as="sourcePoint" />
            <mxPoint x="280" y="496" as="targetPoint" />
          </mxGeometry>
        </mxCell>
        <mxCell id="vRwU5_9lx7jZgL3S7Ofa-54" value="" style="group" vertex="1" connectable="0" parent="1">
          <mxGeometry x="160" y="600" width="140" height="90" as="geometry" />
        </mxCell>
        <mxCell id="vRwU5_9lx7jZgL3S7Ofa-55" value="" style="ellipse;whiteSpace=wrap;html=1;aspect=fixed;container=0;fillColor=#f5f5f5;fontColor=#333333;strokeColor=#666666;" vertex="1" parent="vRwU5_9lx7jZgL3S7Ofa-54">
          <mxGeometry x="42" width="13.846153846153847" height="13.846153846153847" as="geometry" />
        </mxCell>
        <mxCell id="vRwU5_9lx7jZgL3S7Ofa-56" value="" style="ellipse;whiteSpace=wrap;html=1;aspect=fixed;container=0;fillColor=#f5f5f5;fontColor=#333333;strokeColor=#666666;" vertex="1" parent="vRwU5_9lx7jZgL3S7Ofa-54">
          <mxGeometry x="42" y="34.61538461538461" width="13.846153846153847" height="13.846153846153847" as="geometry" />
        </mxCell>
        <mxCell id="vRwU5_9lx7jZgL3S7Ofa-57" value="" style="ellipse;whiteSpace=wrap;html=1;aspect=fixed;container=0;fillColor=#f5f5f5;fontColor=#333333;strokeColor=#666666;" vertex="1" parent="vRwU5_9lx7jZgL3S7Ofa-54">
          <mxGeometry x="42" y="76.15384615384616" width="13.846153846153847" height="13.846153846153847" as="geometry" />
        </mxCell>
        <mxCell id="vRwU5_9lx7jZgL3S7Ofa-58" value="" style="ellipse;whiteSpace=wrap;html=1;aspect=fixed;container=0;fillColor=#f5f5f5;fontColor=#333333;strokeColor=#666666;" vertex="1" parent="vRwU5_9lx7jZgL3S7Ofa-54">
          <mxGeometry x="84" width="13.846153846153847" height="13.846153846153847" as="geometry" />
        </mxCell>
        <mxCell id="vRwU5_9lx7jZgL3S7Ofa-59" value="" style="ellipse;whiteSpace=wrap;html=1;aspect=fixed;container=0;fillColor=#f5f5f5;fontColor=#333333;strokeColor=#666666;" vertex="1" parent="vRwU5_9lx7jZgL3S7Ofa-54">
          <mxGeometry x="84" y="34.61538461538461" width="13.846153846153847" height="13.846153846153847" as="geometry" />
        </mxCell>
        <mxCell id="vRwU5_9lx7jZgL3S7Ofa-60" value="" style="ellipse;whiteSpace=wrap;html=1;aspect=fixed;container=0;fillColor=#f5f5f5;fontColor=#333333;strokeColor=#666666;" vertex="1" parent="vRwU5_9lx7jZgL3S7Ofa-54">
          <mxGeometry x="84" y="76.15384615384616" width="13.846153846153847" height="13.846153846153847" as="geometry" />
        </mxCell>
        <mxCell id="vRwU5_9lx7jZgL3S7Ofa-61" value="" style="ellipse;whiteSpace=wrap;html=1;aspect=fixed;container=0;fillColor=#f5f5f5;strokeColor=#666666;fontColor=#333333;" vertex="1" parent="vRwU5_9lx7jZgL3S7Ofa-54">
          <mxGeometry y="20.76923076923077" width="13.846153846153847" height="13.846153846153847" as="geometry" />
        </mxCell>
        <mxCell id="vRwU5_9lx7jZgL3S7Ofa-62" value="" style="ellipse;whiteSpace=wrap;html=1;aspect=fixed;container=0;fillColor=#f5f5f5;fontColor=#333333;strokeColor=#666666;" vertex="1" parent="vRwU5_9lx7jZgL3S7Ofa-54">
          <mxGeometry y="62.30769230769231" width="13.846153846153847" height="13.846153846153847" as="geometry" />
        </mxCell>
        <mxCell id="vRwU5_9lx7jZgL3S7Ofa-63" value="" style="ellipse;whiteSpace=wrap;html=1;aspect=fixed;container=0;fillColor=#f5f5f5;fontColor=#333333;strokeColor=#666666;" vertex="1" parent="vRwU5_9lx7jZgL3S7Ofa-54">
          <mxGeometry x="126" y="20.76923076923077" width="13.846153846153847" height="13.846153846153847" as="geometry" />
        </mxCell>
        <mxCell id="vRwU5_9lx7jZgL3S7Ofa-64" value="" style="ellipse;whiteSpace=wrap;html=1;aspect=fixed;container=0;fillColor=#f5f5f5;fontColor=#333333;strokeColor=#666666;" vertex="1" parent="vRwU5_9lx7jZgL3S7Ofa-54">
          <mxGeometry x="126" y="62.30769230769231" width="13.846153846153847" height="13.846153846153847" as="geometry" />
        </mxCell>
        <mxCell id="vRwU5_9lx7jZgL3S7Ofa-65" value="" style="endArrow=none;html=1;rounded=0;entryX=0;entryY=0.5;entryDx=0;entryDy=0;entryPerimeter=0;exitX=1;exitY=0.5;exitDx=0;exitDy=0;" edge="1" parent="vRwU5_9lx7jZgL3S7Ofa-54" source="vRwU5_9lx7jZgL3S7Ofa-56" target="vRwU5_9lx7jZgL3S7Ofa-58">
          <mxGeometry width="50" height="50" relative="1" as="geometry">
            <mxPoint x="56" y="38.07692307692308" as="sourcePoint" />
            <mxPoint x="91" y="3.4615384615384617" as="targetPoint" />
          </mxGeometry>
        </mxCell>
        <mxCell id="vRwU5_9lx7jZgL3S7Ofa-66" value="" style="endArrow=none;html=1;rounded=0;entryX=0;entryY=0.5;entryDx=0;entryDy=0;exitX=1;exitY=0.5;exitDx=0;exitDy=0;" edge="1" parent="vRwU5_9lx7jZgL3S7Ofa-54" source="vRwU5_9lx7jZgL3S7Ofa-56" target="vRwU5_9lx7jZgL3S7Ofa-59">
          <mxGeometry width="50" height="50" relative="1" as="geometry">
            <mxPoint x="56" y="57.46153846153846" as="sourcePoint" />
            <mxPoint x="86.1" y="27.692307692307693" as="targetPoint" />
          </mxGeometry>
        </mxCell>
        <mxCell id="vRwU5_9lx7jZgL3S7Ofa-67" value="" style="endArrow=none;html=1;rounded=0;" edge="1" parent="vRwU5_9lx7jZgL3S7Ofa-54">
          <mxGeometry width="50" height="50" relative="1" as="geometry">
            <mxPoint x="56" y="41.53846153846154" as="sourcePoint" />
            <mxPoint x="84" y="83.07692307692308" as="targetPoint" />
          </mxGeometry>
        </mxCell>
        <mxCell id="vRwU5_9lx7jZgL3S7Ofa-68" value="" style="endArrow=none;html=1;rounded=0;exitX=1;exitY=0.5;exitDx=0;exitDy=0;entryX=0;entryY=0.5;entryDx=0;entryDy=0;" edge="1" parent="vRwU5_9lx7jZgL3S7Ofa-54" source="vRwU5_9lx7jZgL3S7Ofa-55" target="vRwU5_9lx7jZgL3S7Ofa-58">
          <mxGeometry width="50" height="50" relative="1" as="geometry">
            <mxPoint x="98" y="48.46153846153847" as="sourcePoint" />
            <mxPoint x="133" y="13.846153846153847" as="targetPoint" />
          </mxGeometry>
        </mxCell>
        <mxCell id="vRwU5_9lx7jZgL3S7Ofa-69" value="" style="endArrow=none;html=1;rounded=0;entryX=0;entryY=0.5;entryDx=0;entryDy=0;" edge="1" parent="vRwU5_9lx7jZgL3S7Ofa-54" target="vRwU5_9lx7jZgL3S7Ofa-59">
          <mxGeometry width="50" height="50" relative="1" as="geometry">
            <mxPoint x="56" y="6.923076923076923" as="sourcePoint" />
            <mxPoint x="91" y="6.923076923076923" as="targetPoint" />
          </mxGeometry>
        </mxCell>
        <mxCell id="vRwU5_9lx7jZgL3S7Ofa-70" value="" style="endArrow=none;html=1;rounded=0;exitX=1;exitY=0.5;exitDx=0;exitDy=0;" edge="1" parent="vRwU5_9lx7jZgL3S7Ofa-54" source="vRwU5_9lx7jZgL3S7Ofa-55">
          <mxGeometry width="50" height="50" relative="1" as="geometry">
            <mxPoint x="70" y="27.692307692307693" as="sourcePoint" />
            <mxPoint x="84" y="83.07692307692308" as="targetPoint" />
          </mxGeometry>
        </mxCell>
        <mxCell id="vRwU5_9lx7jZgL3S7Ofa-71" value="" style="endArrow=none;html=1;rounded=0;entryX=0;entryY=0.5;entryDx=0;entryDy=0;exitX=1;exitY=0.5;exitDx=0;exitDy=0;" edge="1" parent="vRwU5_9lx7jZgL3S7Ofa-54" source="vRwU5_9lx7jZgL3S7Ofa-57" target="vRwU5_9lx7jZgL3S7Ofa-58">
          <mxGeometry width="50" height="50" relative="1" as="geometry">
            <mxPoint x="49" y="76.15384615384616" as="sourcePoint" />
            <mxPoint x="84" y="41.53846153846154" as="targetPoint" />
          </mxGeometry>
        </mxCell>
        <mxCell id="vRwU5_9lx7jZgL3S7Ofa-72" value="" style="endArrow=none;html=1;rounded=0;entryX=0;entryY=0.5;entryDx=0;entryDy=0;exitX=1;exitY=0.5;exitDx=0;exitDy=0;" edge="1" parent="vRwU5_9lx7jZgL3S7Ofa-54" source="vRwU5_9lx7jZgL3S7Ofa-57" target="vRwU5_9lx7jZgL3S7Ofa-59">
          <mxGeometry width="50" height="50" relative="1" as="geometry">
            <mxPoint x="56" y="76.15384615384616" as="sourcePoint" />
            <mxPoint x="91" y="41.53846153846154" as="targetPoint" />
          </mxGeometry>
        </mxCell>
        <mxCell id="vRwU5_9lx7jZgL3S7Ofa-73" value="" style="endArrow=none;html=1;rounded=0;exitX=1;exitY=0.5;exitDx=0;exitDy=0;entryX=0;entryY=0.5;entryDx=0;entryDy=0;" edge="1" parent="vRwU5_9lx7jZgL3S7Ofa-54">
          <mxGeometry width="50" height="50" relative="1" as="geometry">
            <mxPoint x="56" y="83.0076923076923" as="sourcePoint" />
            <mxPoint x="84" y="83.0076923076923" as="targetPoint" />
          </mxGeometry>
        </mxCell>
        <mxCell id="vRwU5_9lx7jZgL3S7Ofa-74" value="" style="endArrow=none;html=1;rounded=0;entryX=0;entryY=0.5;entryDx=0;entryDy=0;" edge="1" parent="vRwU5_9lx7jZgL3S7Ofa-54" target="vRwU5_9lx7jZgL3S7Ofa-55">
          <mxGeometry width="50" height="50" relative="1" as="geometry">
            <mxPoint x="14" y="27.692307692307693" as="sourcePoint" />
            <mxPoint x="49" y="-6.923076923076923" as="targetPoint" />
          </mxGeometry>
        </mxCell>
        <mxCell id="vRwU5_9lx7jZgL3S7Ofa-75" value="" style="endArrow=none;html=1;rounded=0;entryX=0;entryY=0.5;entryDx=0;entryDy=0;" edge="1" parent="vRwU5_9lx7jZgL3S7Ofa-54" target="vRwU5_9lx7jZgL3S7Ofa-56">
          <mxGeometry width="50" height="50" relative="1" as="geometry">
            <mxPoint x="14" y="27.692307692307693" as="sourcePoint" />
            <mxPoint x="98" y="27.692307692307693" as="targetPoint" />
          </mxGeometry>
        </mxCell>
        <mxCell id="vRwU5_9lx7jZgL3S7Ofa-76" value="" style="endArrow=none;html=1;rounded=0;entryX=0;entryY=0.5;entryDx=0;entryDy=0;exitX=1;exitY=0.5;exitDx=0;exitDy=0;" edge="1" parent="vRwU5_9lx7jZgL3S7Ofa-54" source="vRwU5_9lx7jZgL3S7Ofa-61" target="vRwU5_9lx7jZgL3S7Ofa-57">
          <mxGeometry width="50" height="50" relative="1" as="geometry">
            <mxPoint x="10.5" y="34.61538461538461" as="sourcePoint" />
            <mxPoint x="38.5" y="48.46153846153847" as="targetPoint" />
          </mxGeometry>
        </mxCell>
        <mxCell id="vRwU5_9lx7jZgL3S7Ofa-77" value="" style="endArrow=none;html=1;rounded=0;entryX=0;entryY=0.5;entryDx=0;entryDy=0;exitX=1;exitY=0.5;exitDx=0;exitDy=0;" edge="1" parent="vRwU5_9lx7jZgL3S7Ofa-54" source="vRwU5_9lx7jZgL3S7Ofa-62" target="vRwU5_9lx7jZgL3S7Ofa-55">
          <mxGeometry width="50" height="50" relative="1" as="geometry">
            <mxPoint x="14" y="65.76923076923077" as="sourcePoint" />
            <mxPoint x="49" y="31.153846153846153" as="targetPoint" />
          </mxGeometry>
        </mxCell>
        <mxCell id="vRwU5_9lx7jZgL3S7Ofa-78" value="" style="endArrow=none;html=1;rounded=0;entryX=0;entryY=0.5;entryDx=0;entryDy=0;" edge="1" parent="vRwU5_9lx7jZgL3S7Ofa-54" target="vRwU5_9lx7jZgL3S7Ofa-57">
          <mxGeometry width="50" height="50" relative="1" as="geometry">
            <mxPoint x="14" y="69.23076923076923" as="sourcePoint" />
            <mxPoint x="49" y="51.92307692307693" as="targetPoint" />
          </mxGeometry>
        </mxCell>
        <mxCell id="vRwU5_9lx7jZgL3S7Ofa-79" value="" style="endArrow=none;html=1;rounded=0;exitX=1.069;exitY=0.458;exitDx=0;exitDy=0;exitPerimeter=0;entryX=0;entryY=0.5;entryDx=0;entryDy=0;" edge="1" parent="vRwU5_9lx7jZgL3S7Ofa-54" source="vRwU5_9lx7jZgL3S7Ofa-62" target="vRwU5_9lx7jZgL3S7Ofa-56">
          <mxGeometry width="50" height="50" relative="1" as="geometry">
            <mxPoint x="14" y="76.15384615384616" as="sourcePoint" />
            <mxPoint x="49" y="41.53846153846154" as="targetPoint" />
          </mxGeometry>
        </mxCell>
        <mxCell id="vRwU5_9lx7jZgL3S7Ofa-80" value="" style="endArrow=none;html=1;rounded=0;exitX=1;exitY=0.5;exitDx=0;exitDy=0;entryX=0;entryY=0.5;entryDx=0;entryDy=0;" edge="1" parent="vRwU5_9lx7jZgL3S7Ofa-54" source="vRwU5_9lx7jZgL3S7Ofa-58" target="vRwU5_9lx7jZgL3S7Ofa-63">
          <mxGeometry width="50" height="50" relative="1" as="geometry">
            <mxPoint x="98" y="45" as="sourcePoint" />
            <mxPoint x="133" y="10.384615384615385" as="targetPoint" />
          </mxGeometry>
        </mxCell>
        <mxCell id="vRwU5_9lx7jZgL3S7Ofa-81" value="" style="endArrow=none;html=1;rounded=0;exitX=1;exitY=0.5;exitDx=0;exitDy=0;entryX=0;entryY=0.5;entryDx=0;entryDy=0;" edge="1" parent="vRwU5_9lx7jZgL3S7Ofa-54" source="vRwU5_9lx7jZgL3S7Ofa-59" target="vRwU5_9lx7jZgL3S7Ofa-63">
          <mxGeometry width="50" height="50" relative="1" as="geometry">
            <mxPoint x="98" y="55.38461538461539" as="sourcePoint" />
            <mxPoint x="133" y="20.76923076923077" as="targetPoint" />
          </mxGeometry>
        </mxCell>
        <mxCell id="vRwU5_9lx7jZgL3S7Ofa-82" value="" style="endArrow=none;html=1;rounded=0;exitX=1;exitY=0.5;exitDx=0;exitDy=0;" edge="1" parent="vRwU5_9lx7jZgL3S7Ofa-54" source="vRwU5_9lx7jZgL3S7Ofa-60">
          <mxGeometry width="50" height="50" relative="1" as="geometry">
            <mxPoint x="91" y="62.30769230769231" as="sourcePoint" />
            <mxPoint x="126" y="27.692307692307693" as="targetPoint" />
          </mxGeometry>
        </mxCell>
        <mxCell id="vRwU5_9lx7jZgL3S7Ofa-83" value="" style="endArrow=none;html=1;rounded=0;exitX=1;exitY=0.5;exitDx=0;exitDy=0;entryX=0;entryY=0.5;entryDx=0;entryDy=0;" edge="1" parent="vRwU5_9lx7jZgL3S7Ofa-54" source="vRwU5_9lx7jZgL3S7Ofa-58" target="vRwU5_9lx7jZgL3S7Ofa-64">
          <mxGeometry width="50" height="50" relative="1" as="geometry">
            <mxPoint x="91" y="100.38461538461539" as="sourcePoint" />
            <mxPoint x="126" y="65.76923076923077" as="targetPoint" />
          </mxGeometry>
        </mxCell>
        <mxCell id="vRwU5_9lx7jZgL3S7Ofa-84" value="" style="endArrow=none;html=1;rounded=0;entryX=0;entryY=0.5;entryDx=0;entryDy=0;" edge="1" parent="vRwU5_9lx7jZgL3S7Ofa-54" target="vRwU5_9lx7jZgL3S7Ofa-64">
          <mxGeometry width="50" height="50" relative="1" as="geometry">
            <mxPoint x="98" y="83.07692307692308" as="sourcePoint" />
            <mxPoint x="133" y="55.38461538461539" as="targetPoint" />
          </mxGeometry>
        </mxCell>
        <mxCell id="vRwU5_9lx7jZgL3S7Ofa-85" value="" style="endArrow=none;html=1;rounded=0;exitX=1;exitY=0.5;exitDx=0;exitDy=0;" edge="1" parent="vRwU5_9lx7jZgL3S7Ofa-54" source="vRwU5_9lx7jZgL3S7Ofa-59">
          <mxGeometry width="50" height="50" relative="1" as="geometry">
            <mxPoint x="91" y="96.92307692307693" as="sourcePoint" />
            <mxPoint x="126" y="69.23076923076923" as="targetPoint" />
          </mxGeometry>
        </mxCell>
        <mxCell id="vRwU5_9lx7jZgL3S7Ofa-198" value="" style="endArrow=classic;html=1;rounded=0;exitX=0.5;exitY=0;exitDx=0;exitDy=0;" edge="1" parent="1" source="vRwU5_9lx7jZgL3S7Ofa-327" target="vRwU5_9lx7jZgL3S7Ofa-314">
          <mxGeometry width="50" height="50" relative="1" as="geometry">
            <mxPoint x="560" y="500" as="sourcePoint" />
            <mxPoint x="640" y="310" as="targetPoint" />
          </mxGeometry>
        </mxCell>
        <mxCell id="vRwU5_9lx7jZgL3S7Ofa-199" value="" style="endArrow=classic;html=1;rounded=0;exitX=0.46;exitY=1.033;exitDx=0;exitDy=0;dashed=1;exitPerimeter=0;entryX=0.631;entryY=0.004;entryDx=0;entryDy=0;entryPerimeter=0;" edge="1" parent="1" target="vRwU5_9lx7jZgL3S7Ofa-327" source="vRwU5_9lx7jZgL3S7Ofa-314">
          <mxGeometry width="50" height="50" relative="1" as="geometry">
            <mxPoint x="667.98" y="344" as="sourcePoint" />
            <mxPoint x="595" y="500" as="targetPoint" />
          </mxGeometry>
        </mxCell>
        <mxCell id="vRwU5_9lx7jZgL3S7Ofa-234" value="" style="endArrow=classic;html=1;rounded=0;entryX=0.68;entryY=1.007;entryDx=0;entryDy=0;entryPerimeter=0;exitX=0.454;exitY=-0.013;exitDx=0;exitDy=0;exitPerimeter=0;" edge="1" parent="1" source="vRwU5_9lx7jZgL3S7Ofa-366" target="vRwU5_9lx7jZgL3S7Ofa-314">
          <mxGeometry width="50" height="50" relative="1" as="geometry">
            <mxPoint x="870" y="500" as="sourcePoint" />
            <mxPoint x="745.1999999999998" y="336.52" as="targetPoint" />
          </mxGeometry>
        </mxCell>
        <mxCell id="vRwU5_9lx7jZgL3S7Ofa-235" value="" style="endArrow=classic;html=1;rounded=0;exitX=0.784;exitY=1.013;exitDx=0;exitDy=0;dashed=1;exitPerimeter=0;entryX=0.585;entryY=0.004;entryDx=0;entryDy=0;entryPerimeter=0;" edge="1" parent="1" target="vRwU5_9lx7jZgL3S7Ofa-366" source="vRwU5_9lx7jZgL3S7Ofa-314">
          <mxGeometry width="50" height="50" relative="1" as="geometry">
            <mxPoint x="768.5999999999999" y="330.5799999999999" as="sourcePoint" />
            <mxPoint x="905" y="500" as="targetPoint" />
          </mxGeometry>
        </mxCell>
        <mxCell id="vRwU5_9lx7jZgL3S7Ofa-270" value="" style="endArrow=classic;html=1;rounded=0;entryX=0.992;entryY=0.92;entryDx=0;entryDy=0;entryPerimeter=0;exitX=0.458;exitY=0;exitDx=0;exitDy=0;exitPerimeter=0;" edge="1" parent="1" source="vRwU5_9lx7jZgL3S7Ofa-404" target="vRwU5_9lx7jZgL3S7Ofa-314">
          <mxGeometry width="50" height="50" relative="1" as="geometry">
            <mxPoint x="1190" y="500" as="sourcePoint" />
            <mxPoint x="832.1700000000001" y="307.26" as="targetPoint" />
          </mxGeometry>
        </mxCell>
        <mxCell id="vRwU5_9lx7jZgL3S7Ofa-271" value="" style="endArrow=classic;html=1;rounded=0;exitX=0.992;exitY=0.8;exitDx=0;exitDy=0;dashed=1;entryX=0.615;entryY=0;entryDx=0;entryDy=0;entryPerimeter=0;exitPerimeter=0;" edge="1" parent="1" target="vRwU5_9lx7jZgL3S7Ofa-404" source="vRwU5_9lx7jZgL3S7Ofa-314">
          <mxGeometry width="50" height="50" relative="1" as="geometry">
            <mxPoint x="846.21" y="298.9000000000001" as="sourcePoint" />
            <mxPoint x="1225" y="500" as="targetPoint" />
          </mxGeometry>
        </mxCell>
        <mxCell id="vRwU5_9lx7jZgL3S7Ofa-309" value="&lt;font face=&quot;Comic Sans MS&quot;&gt;&lt;font style=&quot;font-size: 21px;&quot;&gt;Client1 (R1&lt;/font&gt;&lt;span style=&quot;background-color: transparent; color: light-dark(rgb(0, 0, 0), rgb(255, 255, 255));&quot;&gt;&lt;font style=&quot;font-size: 21px;&quot;&gt;)&lt;/font&gt;&lt;/span&gt;&lt;/font&gt;" style="text;html=1;whiteSpace=wrap;strokeColor=none;fillColor=none;align=center;verticalAlign=middle;rounded=0;" vertex="1" parent="1">
          <mxGeometry x="150" y="740" width="150" height="30" as="geometry" />
        </mxCell>
        <mxCell id="vRwU5_9lx7jZgL3S7Ofa-310" value="&lt;font face=&quot;Comic Sans MS&quot;&gt;&lt;font style=&quot;font-size: 21px;&quot;&gt;Client2 (R2&lt;/font&gt;&lt;span style=&quot;background-color: transparent; color: light-dark(rgb(0, 0, 0), rgb(255, 255, 255));&quot;&gt;&lt;font style=&quot;font-size: 21px;&quot;&gt;)&lt;/font&gt;&lt;/span&gt;&lt;/font&gt;" style="text;html=1;whiteSpace=wrap;strokeColor=none;fillColor=none;align=center;verticalAlign=middle;rounded=0;" vertex="1" parent="1">
          <mxGeometry x="465" y="730" width="150" height="30" as="geometry" />
        </mxCell>
        <mxCell id="vRwU5_9lx7jZgL3S7Ofa-311" value="&lt;font face=&quot;Comic Sans MS&quot;&gt;&lt;font style=&quot;font-size: 21px;&quot;&gt;Client3 (R3&lt;/font&gt;&lt;span style=&quot;background-color: transparent; color: light-dark(rgb(0, 0, 0), rgb(255, 255, 255));&quot;&gt;&lt;font style=&quot;font-size: 21px;&quot;&gt;)&lt;/font&gt;&lt;/span&gt;&lt;/font&gt;" style="text;html=1;whiteSpace=wrap;strokeColor=none;fillColor=none;align=center;verticalAlign=middle;rounded=0;" vertex="1" parent="1">
          <mxGeometry x="805" y="730" width="150" height="30" as="geometry" />
        </mxCell>
        <mxCell id="vRwU5_9lx7jZgL3S7Ofa-314" value="" style="rounded=1;whiteSpace=wrap;html=1;fillColor=#ffe6cc;strokeColor=#d79b00;" vertex="1" parent="1">
          <mxGeometry x="555" y="155" width="250" height="150" as="geometry" />
        </mxCell>
        <mxCell id="vRwU5_9lx7jZgL3S7Ofa-312" value="&lt;font face=&quot;Comic Sans MS&quot;&gt;&lt;font style=&quot;font-size: 21px;&quot;&gt;Client4 (R4&lt;/font&gt;&lt;span style=&quot;background-color: transparent; color: light-dark(rgb(0, 0, 0), rgb(255, 255, 255));&quot;&gt;&lt;font style=&quot;font-size: 21px;&quot;&gt;)&lt;/font&gt;&lt;/span&gt;&lt;/font&gt;" style="text;html=1;whiteSpace=wrap;strokeColor=none;fillColor=none;align=center;verticalAlign=middle;rounded=0;" vertex="1" parent="1">
          <mxGeometry x="1125" y="730" width="150" height="30" as="geometry" />
        </mxCell>
        <mxCell id="vRwU5_9lx7jZgL3S7Ofa-52" value="" style="group" vertex="1" connectable="0" parent="1">
          <mxGeometry x="610" y="180" width="140" height="90" as="geometry" />
        </mxCell>
        <mxCell id="vRwU5_9lx7jZgL3S7Ofa-7" value="" style="ellipse;whiteSpace=wrap;html=1;aspect=fixed;container=0;fillColor=#f5f5f5;fontColor=#333333;strokeColor=#666666;" vertex="1" parent="vRwU5_9lx7jZgL3S7Ofa-52">
          <mxGeometry x="42" width="13.846153846153847" height="13.846153846153847" as="geometry" />
        </mxCell>
        <mxCell id="vRwU5_9lx7jZgL3S7Ofa-8" value="" style="ellipse;whiteSpace=wrap;html=1;aspect=fixed;container=0;fillColor=#f5f5f5;fontColor=#333333;strokeColor=#666666;" vertex="1" parent="vRwU5_9lx7jZgL3S7Ofa-52">
          <mxGeometry x="42" y="34.61538461538461" width="13.846153846153847" height="13.846153846153847" as="geometry" />
        </mxCell>
        <mxCell id="vRwU5_9lx7jZgL3S7Ofa-9" value="" style="ellipse;whiteSpace=wrap;html=1;aspect=fixed;container=0;fillColor=#f5f5f5;fontColor=#333333;strokeColor=#666666;" vertex="1" parent="vRwU5_9lx7jZgL3S7Ofa-52">
          <mxGeometry x="42" y="76.15384615384616" width="13.846153846153847" height="13.846153846153847" as="geometry" />
        </mxCell>
        <mxCell id="vRwU5_9lx7jZgL3S7Ofa-17" value="" style="ellipse;whiteSpace=wrap;html=1;aspect=fixed;container=0;fillColor=#f5f5f5;fontColor=#333333;strokeColor=#666666;" vertex="1" parent="vRwU5_9lx7jZgL3S7Ofa-52">
          <mxGeometry x="84" width="13.846153846153847" height="13.846153846153847" as="geometry" />
        </mxCell>
        <mxCell id="vRwU5_9lx7jZgL3S7Ofa-18" value="" style="ellipse;whiteSpace=wrap;html=1;aspect=fixed;container=0;fillColor=#f5f5f5;fontColor=#333333;strokeColor=#666666;" vertex="1" parent="vRwU5_9lx7jZgL3S7Ofa-52">
          <mxGeometry x="84" y="34.61538461538461" width="13.846153846153847" height="13.846153846153847" as="geometry" />
        </mxCell>
        <mxCell id="vRwU5_9lx7jZgL3S7Ofa-19" value="" style="ellipse;whiteSpace=wrap;html=1;aspect=fixed;container=0;fillColor=#f5f5f5;fontColor=#333333;strokeColor=#666666;" vertex="1" parent="vRwU5_9lx7jZgL3S7Ofa-52">
          <mxGeometry x="84" y="76.15384615384616" width="13.846153846153847" height="13.846153846153847" as="geometry" />
        </mxCell>
        <mxCell id="vRwU5_9lx7jZgL3S7Ofa-20" value="" style="ellipse;whiteSpace=wrap;html=1;aspect=fixed;container=0;fillColor=#f5f5f5;fontColor=#333333;strokeColor=#666666;" vertex="1" parent="vRwU5_9lx7jZgL3S7Ofa-52">
          <mxGeometry y="20.76923076923077" width="13.846153846153847" height="13.846153846153847" as="geometry" />
        </mxCell>
        <mxCell id="vRwU5_9lx7jZgL3S7Ofa-21" value="" style="ellipse;whiteSpace=wrap;html=1;aspect=fixed;container=0;fillColor=#f5f5f5;fontColor=#333333;strokeColor=#666666;" vertex="1" parent="vRwU5_9lx7jZgL3S7Ofa-52">
          <mxGeometry y="62.30769230769231" width="13.846153846153847" height="13.846153846153847" as="geometry" />
        </mxCell>
        <mxCell id="vRwU5_9lx7jZgL3S7Ofa-22" value="" style="ellipse;whiteSpace=wrap;html=1;aspect=fixed;container=0;fillColor=#f5f5f5;fontColor=#333333;strokeColor=#666666;" vertex="1" parent="vRwU5_9lx7jZgL3S7Ofa-52">
          <mxGeometry x="126" y="20.76923076923077" width="13.846153846153847" height="13.846153846153847" as="geometry" />
        </mxCell>
        <mxCell id="vRwU5_9lx7jZgL3S7Ofa-23" value="" style="ellipse;whiteSpace=wrap;html=1;aspect=fixed;container=0;fillColor=#f5f5f5;fontColor=#333333;strokeColor=#666666;" vertex="1" parent="vRwU5_9lx7jZgL3S7Ofa-52">
          <mxGeometry x="126" y="62.30769230769231" width="13.846153846153847" height="13.846153846153847" as="geometry" />
        </mxCell>
        <mxCell id="vRwU5_9lx7jZgL3S7Ofa-30" value="" style="endArrow=none;html=1;rounded=0;entryX=0;entryY=0.5;entryDx=0;entryDy=0;entryPerimeter=0;exitX=1;exitY=0.5;exitDx=0;exitDy=0;" edge="1" parent="vRwU5_9lx7jZgL3S7Ofa-52" source="vRwU5_9lx7jZgL3S7Ofa-8" target="vRwU5_9lx7jZgL3S7Ofa-17">
          <mxGeometry width="50" height="50" relative="1" as="geometry">
            <mxPoint x="56" y="38.07692307692308" as="sourcePoint" />
            <mxPoint x="91" y="3.4615384615384617" as="targetPoint" />
          </mxGeometry>
        </mxCell>
        <mxCell id="vRwU5_9lx7jZgL3S7Ofa-32" value="" style="endArrow=none;html=1;rounded=0;entryX=0;entryY=0.5;entryDx=0;entryDy=0;exitX=1;exitY=0.5;exitDx=0;exitDy=0;" edge="1" parent="vRwU5_9lx7jZgL3S7Ofa-52" source="vRwU5_9lx7jZgL3S7Ofa-8" target="vRwU5_9lx7jZgL3S7Ofa-18">
          <mxGeometry width="50" height="50" relative="1" as="geometry">
            <mxPoint x="56" y="57.46153846153846" as="sourcePoint" />
            <mxPoint x="86.1" y="27.692307692307693" as="targetPoint" />
          </mxGeometry>
        </mxCell>
        <mxCell id="vRwU5_9lx7jZgL3S7Ofa-33" value="" style="endArrow=none;html=1;rounded=0;" edge="1" parent="vRwU5_9lx7jZgL3S7Ofa-52">
          <mxGeometry width="50" height="50" relative="1" as="geometry">
            <mxPoint x="56" y="41.53846153846154" as="sourcePoint" />
            <mxPoint x="84" y="83.07692307692308" as="targetPoint" />
          </mxGeometry>
        </mxCell>
        <mxCell id="vRwU5_9lx7jZgL3S7Ofa-34" value="" style="endArrow=none;html=1;rounded=0;exitX=1;exitY=0.5;exitDx=0;exitDy=0;entryX=0;entryY=0.5;entryDx=0;entryDy=0;" edge="1" parent="vRwU5_9lx7jZgL3S7Ofa-52" source="vRwU5_9lx7jZgL3S7Ofa-7" target="vRwU5_9lx7jZgL3S7Ofa-17">
          <mxGeometry width="50" height="50" relative="1" as="geometry">
            <mxPoint x="98" y="48.46153846153847" as="sourcePoint" />
            <mxPoint x="133" y="13.846153846153847" as="targetPoint" />
          </mxGeometry>
        </mxCell>
        <mxCell id="vRwU5_9lx7jZgL3S7Ofa-35" value="" style="endArrow=none;html=1;rounded=0;entryX=0;entryY=0.5;entryDx=0;entryDy=0;" edge="1" parent="vRwU5_9lx7jZgL3S7Ofa-52" target="vRwU5_9lx7jZgL3S7Ofa-18">
          <mxGeometry width="50" height="50" relative="1" as="geometry">
            <mxPoint x="56" y="6.923076923076923" as="sourcePoint" />
            <mxPoint x="91" y="6.923076923076923" as="targetPoint" />
          </mxGeometry>
        </mxCell>
        <mxCell id="vRwU5_9lx7jZgL3S7Ofa-36" value="" style="endArrow=none;html=1;rounded=0;exitX=1;exitY=0.5;exitDx=0;exitDy=0;" edge="1" parent="vRwU5_9lx7jZgL3S7Ofa-52" source="vRwU5_9lx7jZgL3S7Ofa-7">
          <mxGeometry width="50" height="50" relative="1" as="geometry">
            <mxPoint x="70" y="27.692307692307693" as="sourcePoint" />
            <mxPoint x="84" y="83.07692307692308" as="targetPoint" />
          </mxGeometry>
        </mxCell>
        <mxCell id="vRwU5_9lx7jZgL3S7Ofa-38" value="" style="endArrow=none;html=1;rounded=0;entryX=0;entryY=0.5;entryDx=0;entryDy=0;exitX=1;exitY=0.5;exitDx=0;exitDy=0;" edge="1" parent="vRwU5_9lx7jZgL3S7Ofa-52" source="vRwU5_9lx7jZgL3S7Ofa-9" target="vRwU5_9lx7jZgL3S7Ofa-18">
          <mxGeometry width="50" height="50" relative="1" as="geometry">
            <mxPoint x="56" y="76.15384615384616" as="sourcePoint" />
            <mxPoint x="91" y="41.53846153846154" as="targetPoint" />
          </mxGeometry>
        </mxCell>
        <mxCell id="vRwU5_9lx7jZgL3S7Ofa-39" value="" style="endArrow=none;html=1;rounded=0;exitX=1;exitY=0.5;exitDx=0;exitDy=0;entryX=0;entryY=0.5;entryDx=0;entryDy=0;" edge="1" parent="vRwU5_9lx7jZgL3S7Ofa-52">
          <mxGeometry width="50" height="50" relative="1" as="geometry">
            <mxPoint x="56" y="83.0076923076923" as="sourcePoint" />
            <mxPoint x="84" y="83.0076923076923" as="targetPoint" />
          </mxGeometry>
        </mxCell>
        <mxCell id="vRwU5_9lx7jZgL3S7Ofa-40" value="" style="endArrow=none;html=1;rounded=0;entryX=0;entryY=0.5;entryDx=0;entryDy=0;" edge="1" parent="vRwU5_9lx7jZgL3S7Ofa-52" target="vRwU5_9lx7jZgL3S7Ofa-7">
          <mxGeometry width="50" height="50" relative="1" as="geometry">
            <mxPoint x="14" y="27.692307692307693" as="sourcePoint" />
            <mxPoint x="49" y="-6.923076923076923" as="targetPoint" />
          </mxGeometry>
        </mxCell>
        <mxCell id="vRwU5_9lx7jZgL3S7Ofa-41" value="" style="endArrow=none;html=1;rounded=0;entryX=0;entryY=0.5;entryDx=0;entryDy=0;" edge="1" parent="vRwU5_9lx7jZgL3S7Ofa-52" target="vRwU5_9lx7jZgL3S7Ofa-8">
          <mxGeometry width="50" height="50" relative="1" as="geometry">
            <mxPoint x="14" y="27.692307692307693" as="sourcePoint" />
            <mxPoint x="98" y="27.692307692307693" as="targetPoint" />
          </mxGeometry>
        </mxCell>
        <mxCell id="vRwU5_9lx7jZgL3S7Ofa-42" value="" style="endArrow=none;html=1;rounded=0;entryX=0;entryY=0.5;entryDx=0;entryDy=0;exitX=1;exitY=0.5;exitDx=0;exitDy=0;" edge="1" parent="vRwU5_9lx7jZgL3S7Ofa-52" source="vRwU5_9lx7jZgL3S7Ofa-20" target="vRwU5_9lx7jZgL3S7Ofa-9">
          <mxGeometry width="50" height="50" relative="1" as="geometry">
            <mxPoint x="10.5" y="34.61538461538461" as="sourcePoint" />
            <mxPoint x="38.5" y="48.46153846153847" as="targetPoint" />
          </mxGeometry>
        </mxCell>
        <mxCell id="vRwU5_9lx7jZgL3S7Ofa-43" value="" style="endArrow=none;html=1;rounded=0;entryX=0;entryY=0.5;entryDx=0;entryDy=0;exitX=1;exitY=0.5;exitDx=0;exitDy=0;" edge="1" parent="vRwU5_9lx7jZgL3S7Ofa-52" source="vRwU5_9lx7jZgL3S7Ofa-21" target="vRwU5_9lx7jZgL3S7Ofa-7">
          <mxGeometry width="50" height="50" relative="1" as="geometry">
            <mxPoint x="14" y="65.76923076923077" as="sourcePoint" />
            <mxPoint x="49" y="31.153846153846153" as="targetPoint" />
          </mxGeometry>
        </mxCell>
        <mxCell id="vRwU5_9lx7jZgL3S7Ofa-44" value="" style="endArrow=none;html=1;rounded=0;entryX=0;entryY=0.5;entryDx=0;entryDy=0;" edge="1" parent="vRwU5_9lx7jZgL3S7Ofa-52" target="vRwU5_9lx7jZgL3S7Ofa-9">
          <mxGeometry width="50" height="50" relative="1" as="geometry">
            <mxPoint x="14" y="69.23076923076923" as="sourcePoint" />
            <mxPoint x="49" y="51.92307692307693" as="targetPoint" />
          </mxGeometry>
        </mxCell>
        <mxCell id="vRwU5_9lx7jZgL3S7Ofa-45" value="" style="endArrow=none;html=1;rounded=0;exitX=1.069;exitY=0.458;exitDx=0;exitDy=0;exitPerimeter=0;entryX=0;entryY=0.5;entryDx=0;entryDy=0;" edge="1" parent="vRwU5_9lx7jZgL3S7Ofa-52" source="vRwU5_9lx7jZgL3S7Ofa-21" target="vRwU5_9lx7jZgL3S7Ofa-8">
          <mxGeometry width="50" height="50" relative="1" as="geometry">
            <mxPoint x="14" y="76.15384615384616" as="sourcePoint" />
            <mxPoint x="49" y="41.53846153846154" as="targetPoint" />
          </mxGeometry>
        </mxCell>
        <mxCell id="vRwU5_9lx7jZgL3S7Ofa-46" value="" style="endArrow=none;html=1;rounded=0;exitX=1;exitY=0.5;exitDx=0;exitDy=0;entryX=0;entryY=0.5;entryDx=0;entryDy=0;" edge="1" parent="vRwU5_9lx7jZgL3S7Ofa-52" source="vRwU5_9lx7jZgL3S7Ofa-17" target="vRwU5_9lx7jZgL3S7Ofa-22">
          <mxGeometry width="50" height="50" relative="1" as="geometry">
            <mxPoint x="98" y="45" as="sourcePoint" />
            <mxPoint x="133" y="10.384615384615385" as="targetPoint" />
          </mxGeometry>
        </mxCell>
        <mxCell id="vRwU5_9lx7jZgL3S7Ofa-47" value="" style="endArrow=none;html=1;rounded=0;exitX=1;exitY=0.5;exitDx=0;exitDy=0;entryX=0;entryY=0.5;entryDx=0;entryDy=0;" edge="1" parent="vRwU5_9lx7jZgL3S7Ofa-52" source="vRwU5_9lx7jZgL3S7Ofa-18" target="vRwU5_9lx7jZgL3S7Ofa-22">
          <mxGeometry width="50" height="50" relative="1" as="geometry">
            <mxPoint x="98" y="55.38461538461539" as="sourcePoint" />
            <mxPoint x="133" y="20.76923076923077" as="targetPoint" />
          </mxGeometry>
        </mxCell>
        <mxCell id="vRwU5_9lx7jZgL3S7Ofa-48" value="" style="endArrow=none;html=1;rounded=0;exitX=1;exitY=0.5;exitDx=0;exitDy=0;" edge="1" parent="vRwU5_9lx7jZgL3S7Ofa-52" source="vRwU5_9lx7jZgL3S7Ofa-19">
          <mxGeometry width="50" height="50" relative="1" as="geometry">
            <mxPoint x="91" y="62.30769230769231" as="sourcePoint" />
            <mxPoint x="126" y="27.692307692307693" as="targetPoint" />
          </mxGeometry>
        </mxCell>
        <mxCell id="vRwU5_9lx7jZgL3S7Ofa-49" value="" style="endArrow=none;html=1;rounded=0;exitX=1;exitY=0.5;exitDx=0;exitDy=0;entryX=0;entryY=0.5;entryDx=0;entryDy=0;" edge="1" parent="vRwU5_9lx7jZgL3S7Ofa-52" source="vRwU5_9lx7jZgL3S7Ofa-17" target="vRwU5_9lx7jZgL3S7Ofa-23">
          <mxGeometry width="50" height="50" relative="1" as="geometry">
            <mxPoint x="91" y="100.38461538461539" as="sourcePoint" />
            <mxPoint x="126" y="65.76923076923077" as="targetPoint" />
          </mxGeometry>
        </mxCell>
        <mxCell id="vRwU5_9lx7jZgL3S7Ofa-50" value="" style="endArrow=none;html=1;rounded=0;entryX=0;entryY=0.5;entryDx=0;entryDy=0;" edge="1" parent="vRwU5_9lx7jZgL3S7Ofa-52" target="vRwU5_9lx7jZgL3S7Ofa-23">
          <mxGeometry width="50" height="50" relative="1" as="geometry">
            <mxPoint x="98" y="83.07692307692308" as="sourcePoint" />
            <mxPoint x="133" y="55.38461538461539" as="targetPoint" />
          </mxGeometry>
        </mxCell>
        <mxCell id="vRwU5_9lx7jZgL3S7Ofa-51" value="" style="endArrow=none;html=1;rounded=0;exitX=1;exitY=0.5;exitDx=0;exitDy=0;" edge="1" parent="vRwU5_9lx7jZgL3S7Ofa-52" source="vRwU5_9lx7jZgL3S7Ofa-18">
          <mxGeometry width="50" height="50" relative="1" as="geometry">
            <mxPoint x="91" y="96.92307692307693" as="sourcePoint" />
            <mxPoint x="126" y="69.23076923076923" as="targetPoint" />
          </mxGeometry>
        </mxCell>
        <mxCell id="vRwU5_9lx7jZgL3S7Ofa-5" value="" style="shape=cylinder3;whiteSpace=wrap;html=1;boundedLbl=1;backgroundOutline=1;size=15;fillColor=#e1d5e7;strokeColor=#9673a6;" vertex="1" parent="1">
          <mxGeometry x="915" y="177.5" width="70" height="95" as="geometry" />
        </mxCell>
        <mxCell id="vRwU5_9lx7jZgL3S7Ofa-319" value="" style="rounded=1;whiteSpace=wrap;html=1;fillColor=#dae8fc;strokeColor=#6c8ebf;" vertex="1" parent="1">
          <mxGeometry x="1095" y="195" width="120" height="60" as="geometry" />
        </mxCell>
        <mxCell id="vRwU5_9lx7jZgL3S7Ofa-324" value="&lt;font face=&quot;Comic Sans MS&quot;&gt;Embedding Model + Prototype network&lt;/font&gt;" style="text;html=1;whiteSpace=wrap;strokeColor=none;fillColor=none;align=center;verticalAlign=middle;rounded=0;" vertex="1" parent="1">
          <mxGeometry x="130" y="690" width="220" height="30" as="geometry" />
        </mxCell>
        <mxCell id="vRwU5_9lx7jZgL3S7Ofa-325" value="" style="group" vertex="1" connectable="0" parent="1">
          <mxGeometry x="200" y="510" width="60" height="80" as="geometry" />
        </mxCell>
        <mxCell id="vRwU5_9lx7jZgL3S7Ofa-53" value="" style="shape=cylinder3;whiteSpace=wrap;html=1;boundedLbl=1;backgroundOutline=1;size=15;fillColor=#fff2cc;strokeColor=#d6b656;" vertex="1" parent="vRwU5_9lx7jZgL3S7Ofa-325">
          <mxGeometry width="60" height="80" as="geometry" />
        </mxCell>
        <mxCell id="vRwU5_9lx7jZgL3S7Ofa-322" value="&lt;font face=&quot;Comic Sans MS&quot;&gt;Local data&lt;/font&gt;" style="text;html=1;whiteSpace=wrap;strokeColor=none;fillColor=none;align=center;verticalAlign=middle;rounded=0;" vertex="1" parent="vRwU5_9lx7jZgL3S7Ofa-325">
          <mxGeometry x="5" y="40" width="50" height="30" as="geometry" />
        </mxCell>
        <mxCell id="vRwU5_9lx7jZgL3S7Ofa-327" value="" style="rounded=1;whiteSpace=wrap;html=1;fillColor=#d5e8d4;strokeColor=#82b366;" vertex="1" parent="1">
          <mxGeometry x="420" y="500" width="260" height="230" as="geometry" />
        </mxCell>
        <mxCell id="vRwU5_9lx7jZgL3S7Ofa-328" value="" style="group" vertex="1" connectable="0" parent="1">
          <mxGeometry x="470" y="600" width="140" height="90" as="geometry" />
        </mxCell>
        <mxCell id="vRwU5_9lx7jZgL3S7Ofa-329" value="" style="ellipse;whiteSpace=wrap;html=1;aspect=fixed;container=0;fillColor=#f5f5f5;fontColor=#333333;strokeColor=#666666;" vertex="1" parent="vRwU5_9lx7jZgL3S7Ofa-328">
          <mxGeometry x="42" width="13.846153846153847" height="13.846153846153847" as="geometry" />
        </mxCell>
        <mxCell id="vRwU5_9lx7jZgL3S7Ofa-330" value="" style="ellipse;whiteSpace=wrap;html=1;aspect=fixed;container=0;fillColor=#f5f5f5;fontColor=#333333;strokeColor=#666666;" vertex="1" parent="vRwU5_9lx7jZgL3S7Ofa-328">
          <mxGeometry x="42" y="34.61538461538461" width="13.846153846153847" height="13.846153846153847" as="geometry" />
        </mxCell>
        <mxCell id="vRwU5_9lx7jZgL3S7Ofa-331" value="" style="ellipse;whiteSpace=wrap;html=1;aspect=fixed;container=0;fillColor=#f5f5f5;fontColor=#333333;strokeColor=#666666;" vertex="1" parent="vRwU5_9lx7jZgL3S7Ofa-328">
          <mxGeometry x="42" y="76.15384615384616" width="13.846153846153847" height="13.846153846153847" as="geometry" />
        </mxCell>
        <mxCell id="vRwU5_9lx7jZgL3S7Ofa-332" value="" style="ellipse;whiteSpace=wrap;html=1;aspect=fixed;container=0;fillColor=#f5f5f5;fontColor=#333333;strokeColor=#666666;" vertex="1" parent="vRwU5_9lx7jZgL3S7Ofa-328">
          <mxGeometry x="84" width="13.846153846153847" height="13.846153846153847" as="geometry" />
        </mxCell>
        <mxCell id="vRwU5_9lx7jZgL3S7Ofa-333" value="" style="ellipse;whiteSpace=wrap;html=1;aspect=fixed;container=0;fillColor=#f5f5f5;fontColor=#333333;strokeColor=#666666;" vertex="1" parent="vRwU5_9lx7jZgL3S7Ofa-328">
          <mxGeometry x="84" y="34.61538461538461" width="13.846153846153847" height="13.846153846153847" as="geometry" />
        </mxCell>
        <mxCell id="vRwU5_9lx7jZgL3S7Ofa-334" value="" style="ellipse;whiteSpace=wrap;html=1;aspect=fixed;container=0;fillColor=#f5f5f5;fontColor=#333333;strokeColor=#666666;" vertex="1" parent="vRwU5_9lx7jZgL3S7Ofa-328">
          <mxGeometry x="84" y="76.15384615384616" width="13.846153846153847" height="13.846153846153847" as="geometry" />
        </mxCell>
        <mxCell id="vRwU5_9lx7jZgL3S7Ofa-335" value="" style="ellipse;whiteSpace=wrap;html=1;aspect=fixed;container=0;fillColor=#f5f5f5;fontColor=#333333;strokeColor=#666666;" vertex="1" parent="vRwU5_9lx7jZgL3S7Ofa-328">
          <mxGeometry y="20.76923076923077" width="13.846153846153847" height="13.846153846153847" as="geometry" />
        </mxCell>
        <mxCell id="vRwU5_9lx7jZgL3S7Ofa-336" value="" style="ellipse;whiteSpace=wrap;html=1;aspect=fixed;container=0;fillColor=#f5f5f5;fontColor=#333333;strokeColor=#666666;" vertex="1" parent="vRwU5_9lx7jZgL3S7Ofa-328">
          <mxGeometry y="62.30769230769231" width="13.846153846153847" height="13.846153846153847" as="geometry" />
        </mxCell>
        <mxCell id="vRwU5_9lx7jZgL3S7Ofa-337" value="" style="ellipse;whiteSpace=wrap;html=1;aspect=fixed;container=0;fillColor=#f5f5f5;fontColor=#333333;strokeColor=#666666;" vertex="1" parent="vRwU5_9lx7jZgL3S7Ofa-328">
          <mxGeometry x="126" y="20.76923076923077" width="13.846153846153847" height="13.846153846153847" as="geometry" />
        </mxCell>
        <mxCell id="vRwU5_9lx7jZgL3S7Ofa-338" value="" style="ellipse;whiteSpace=wrap;html=1;aspect=fixed;container=0;fillColor=#f5f5f5;fontColor=#333333;strokeColor=#666666;" vertex="1" parent="vRwU5_9lx7jZgL3S7Ofa-328">
          <mxGeometry x="126" y="62.30769230769231" width="13.846153846153847" height="13.846153846153847" as="geometry" />
        </mxCell>
        <mxCell id="vRwU5_9lx7jZgL3S7Ofa-339" value="" style="endArrow=none;html=1;rounded=0;entryX=0;entryY=0.5;entryDx=0;entryDy=0;entryPerimeter=0;exitX=1;exitY=0.5;exitDx=0;exitDy=0;" edge="1" parent="vRwU5_9lx7jZgL3S7Ofa-328" source="vRwU5_9lx7jZgL3S7Ofa-330" target="vRwU5_9lx7jZgL3S7Ofa-332">
          <mxGeometry width="50" height="50" relative="1" as="geometry">
            <mxPoint x="56" y="38.07692307692308" as="sourcePoint" />
            <mxPoint x="91" y="3.4615384615384617" as="targetPoint" />
          </mxGeometry>
        </mxCell>
        <mxCell id="vRwU5_9lx7jZgL3S7Ofa-340" value="" style="endArrow=none;html=1;rounded=0;entryX=0;entryY=0.5;entryDx=0;entryDy=0;exitX=1;exitY=0.5;exitDx=0;exitDy=0;" edge="1" parent="vRwU5_9lx7jZgL3S7Ofa-328" source="vRwU5_9lx7jZgL3S7Ofa-330" target="vRwU5_9lx7jZgL3S7Ofa-333">
          <mxGeometry width="50" height="50" relative="1" as="geometry">
            <mxPoint x="56" y="57.46153846153846" as="sourcePoint" />
            <mxPoint x="86.1" y="27.692307692307693" as="targetPoint" />
          </mxGeometry>
        </mxCell>
        <mxCell id="vRwU5_9lx7jZgL3S7Ofa-341" value="" style="endArrow=none;html=1;rounded=0;" edge="1" parent="vRwU5_9lx7jZgL3S7Ofa-328">
          <mxGeometry width="50" height="50" relative="1" as="geometry">
            <mxPoint x="56" y="41.53846153846154" as="sourcePoint" />
            <mxPoint x="84" y="83.07692307692308" as="targetPoint" />
          </mxGeometry>
        </mxCell>
        <mxCell id="vRwU5_9lx7jZgL3S7Ofa-342" value="" style="endArrow=none;html=1;rounded=0;exitX=1;exitY=0.5;exitDx=0;exitDy=0;entryX=0;entryY=0.5;entryDx=0;entryDy=0;" edge="1" parent="vRwU5_9lx7jZgL3S7Ofa-328" source="vRwU5_9lx7jZgL3S7Ofa-329" target="vRwU5_9lx7jZgL3S7Ofa-332">
          <mxGeometry width="50" height="50" relative="1" as="geometry">
            <mxPoint x="98" y="48.46153846153847" as="sourcePoint" />
            <mxPoint x="133" y="13.846153846153847" as="targetPoint" />
          </mxGeometry>
        </mxCell>
        <mxCell id="vRwU5_9lx7jZgL3S7Ofa-343" value="" style="endArrow=none;html=1;rounded=0;entryX=0;entryY=0.5;entryDx=0;entryDy=0;" edge="1" parent="vRwU5_9lx7jZgL3S7Ofa-328" target="vRwU5_9lx7jZgL3S7Ofa-333">
          <mxGeometry width="50" height="50" relative="1" as="geometry">
            <mxPoint x="56" y="6.923076923076923" as="sourcePoint" />
            <mxPoint x="91" y="6.923076923076923" as="targetPoint" />
          </mxGeometry>
        </mxCell>
        <mxCell id="vRwU5_9lx7jZgL3S7Ofa-344" value="" style="endArrow=none;html=1;rounded=0;exitX=1;exitY=0.5;exitDx=0;exitDy=0;" edge="1" parent="vRwU5_9lx7jZgL3S7Ofa-328" source="vRwU5_9lx7jZgL3S7Ofa-329">
          <mxGeometry width="50" height="50" relative="1" as="geometry">
            <mxPoint x="70" y="27.692307692307693" as="sourcePoint" />
            <mxPoint x="84" y="83.07692307692308" as="targetPoint" />
          </mxGeometry>
        </mxCell>
        <mxCell id="vRwU5_9lx7jZgL3S7Ofa-345" value="" style="endArrow=none;html=1;rounded=0;entryX=0;entryY=0.5;entryDx=0;entryDy=0;exitX=1;exitY=0.5;exitDx=0;exitDy=0;" edge="1" parent="vRwU5_9lx7jZgL3S7Ofa-328" source="vRwU5_9lx7jZgL3S7Ofa-331" target="vRwU5_9lx7jZgL3S7Ofa-332">
          <mxGeometry width="50" height="50" relative="1" as="geometry">
            <mxPoint x="49" y="76.15384615384616" as="sourcePoint" />
            <mxPoint x="84" y="41.53846153846154" as="targetPoint" />
          </mxGeometry>
        </mxCell>
        <mxCell id="vRwU5_9lx7jZgL3S7Ofa-346" value="" style="endArrow=none;html=1;rounded=0;entryX=0;entryY=0.5;entryDx=0;entryDy=0;exitX=1;exitY=0.5;exitDx=0;exitDy=0;" edge="1" parent="vRwU5_9lx7jZgL3S7Ofa-328" source="vRwU5_9lx7jZgL3S7Ofa-331" target="vRwU5_9lx7jZgL3S7Ofa-333">
          <mxGeometry width="50" height="50" relative="1" as="geometry">
            <mxPoint x="56" y="76.15384615384616" as="sourcePoint" />
            <mxPoint x="91" y="41.53846153846154" as="targetPoint" />
          </mxGeometry>
        </mxCell>
        <mxCell id="vRwU5_9lx7jZgL3S7Ofa-347" value="" style="endArrow=none;html=1;rounded=0;exitX=1;exitY=0.5;exitDx=0;exitDy=0;entryX=0;entryY=0.5;entryDx=0;entryDy=0;" edge="1" parent="vRwU5_9lx7jZgL3S7Ofa-328">
          <mxGeometry width="50" height="50" relative="1" as="geometry">
            <mxPoint x="56" y="83.0076923076923" as="sourcePoint" />
            <mxPoint x="84" y="83.0076923076923" as="targetPoint" />
          </mxGeometry>
        </mxCell>
        <mxCell id="vRwU5_9lx7jZgL3S7Ofa-348" value="" style="endArrow=none;html=1;rounded=0;entryX=0;entryY=0.5;entryDx=0;entryDy=0;" edge="1" parent="vRwU5_9lx7jZgL3S7Ofa-328" target="vRwU5_9lx7jZgL3S7Ofa-329">
          <mxGeometry width="50" height="50" relative="1" as="geometry">
            <mxPoint x="14" y="27.692307692307693" as="sourcePoint" />
            <mxPoint x="49" y="-6.923076923076923" as="targetPoint" />
          </mxGeometry>
        </mxCell>
        <mxCell id="vRwU5_9lx7jZgL3S7Ofa-349" value="" style="endArrow=none;html=1;rounded=0;entryX=0;entryY=0.5;entryDx=0;entryDy=0;" edge="1" parent="vRwU5_9lx7jZgL3S7Ofa-328" target="vRwU5_9lx7jZgL3S7Ofa-330">
          <mxGeometry width="50" height="50" relative="1" as="geometry">
            <mxPoint x="14" y="27.692307692307693" as="sourcePoint" />
            <mxPoint x="98" y="27.692307692307693" as="targetPoint" />
          </mxGeometry>
        </mxCell>
        <mxCell id="vRwU5_9lx7jZgL3S7Ofa-350" value="" style="endArrow=none;html=1;rounded=0;entryX=0;entryY=0.5;entryDx=0;entryDy=0;exitX=1;exitY=0.5;exitDx=0;exitDy=0;" edge="1" parent="vRwU5_9lx7jZgL3S7Ofa-328" source="vRwU5_9lx7jZgL3S7Ofa-335" target="vRwU5_9lx7jZgL3S7Ofa-331">
          <mxGeometry width="50" height="50" relative="1" as="geometry">
            <mxPoint x="10.5" y="34.61538461538461" as="sourcePoint" />
            <mxPoint x="38.5" y="48.46153846153847" as="targetPoint" />
          </mxGeometry>
        </mxCell>
        <mxCell id="vRwU5_9lx7jZgL3S7Ofa-351" value="" style="endArrow=none;html=1;rounded=0;entryX=0;entryY=0.5;entryDx=0;entryDy=0;exitX=1;exitY=0.5;exitDx=0;exitDy=0;" edge="1" parent="vRwU5_9lx7jZgL3S7Ofa-328" source="vRwU5_9lx7jZgL3S7Ofa-336" target="vRwU5_9lx7jZgL3S7Ofa-329">
          <mxGeometry width="50" height="50" relative="1" as="geometry">
            <mxPoint x="14" y="65.76923076923077" as="sourcePoint" />
            <mxPoint x="49" y="31.153846153846153" as="targetPoint" />
          </mxGeometry>
        </mxCell>
        <mxCell id="vRwU5_9lx7jZgL3S7Ofa-352" value="" style="endArrow=none;html=1;rounded=0;entryX=0;entryY=0.5;entryDx=0;entryDy=0;" edge="1" parent="vRwU5_9lx7jZgL3S7Ofa-328" target="vRwU5_9lx7jZgL3S7Ofa-331">
          <mxGeometry width="50" height="50" relative="1" as="geometry">
            <mxPoint x="14" y="69.23076923076923" as="sourcePoint" />
            <mxPoint x="49" y="51.92307692307693" as="targetPoint" />
          </mxGeometry>
        </mxCell>
        <mxCell id="vRwU5_9lx7jZgL3S7Ofa-353" value="" style="endArrow=none;html=1;rounded=0;exitX=1.069;exitY=0.458;exitDx=0;exitDy=0;exitPerimeter=0;entryX=0;entryY=0.5;entryDx=0;entryDy=0;" edge="1" parent="vRwU5_9lx7jZgL3S7Ofa-328" source="vRwU5_9lx7jZgL3S7Ofa-336" target="vRwU5_9lx7jZgL3S7Ofa-330">
          <mxGeometry width="50" height="50" relative="1" as="geometry">
            <mxPoint x="14" y="76.15384615384616" as="sourcePoint" />
            <mxPoint x="49" y="41.53846153846154" as="targetPoint" />
          </mxGeometry>
        </mxCell>
        <mxCell id="vRwU5_9lx7jZgL3S7Ofa-354" value="" style="endArrow=none;html=1;rounded=0;exitX=1;exitY=0.5;exitDx=0;exitDy=0;entryX=0;entryY=0.5;entryDx=0;entryDy=0;" edge="1" parent="vRwU5_9lx7jZgL3S7Ofa-328" source="vRwU5_9lx7jZgL3S7Ofa-332" target="vRwU5_9lx7jZgL3S7Ofa-337">
          <mxGeometry width="50" height="50" relative="1" as="geometry">
            <mxPoint x="98" y="45" as="sourcePoint" />
            <mxPoint x="133" y="10.384615384615385" as="targetPoint" />
          </mxGeometry>
        </mxCell>
        <mxCell id="vRwU5_9lx7jZgL3S7Ofa-355" value="" style="endArrow=none;html=1;rounded=0;exitX=1;exitY=0.5;exitDx=0;exitDy=0;entryX=0;entryY=0.5;entryDx=0;entryDy=0;" edge="1" parent="vRwU5_9lx7jZgL3S7Ofa-328" source="vRwU5_9lx7jZgL3S7Ofa-333" target="vRwU5_9lx7jZgL3S7Ofa-337">
          <mxGeometry width="50" height="50" relative="1" as="geometry">
            <mxPoint x="98" y="55.38461538461539" as="sourcePoint" />
            <mxPoint x="133" y="20.76923076923077" as="targetPoint" />
          </mxGeometry>
        </mxCell>
        <mxCell id="vRwU5_9lx7jZgL3S7Ofa-356" value="" style="endArrow=none;html=1;rounded=0;exitX=1;exitY=0.5;exitDx=0;exitDy=0;" edge="1" parent="vRwU5_9lx7jZgL3S7Ofa-328" source="vRwU5_9lx7jZgL3S7Ofa-334">
          <mxGeometry width="50" height="50" relative="1" as="geometry">
            <mxPoint x="91" y="62.30769230769231" as="sourcePoint" />
            <mxPoint x="126" y="27.692307692307693" as="targetPoint" />
          </mxGeometry>
        </mxCell>
        <mxCell id="vRwU5_9lx7jZgL3S7Ofa-357" value="" style="endArrow=none;html=1;rounded=0;exitX=1;exitY=0.5;exitDx=0;exitDy=0;entryX=0;entryY=0.5;entryDx=0;entryDy=0;" edge="1" parent="vRwU5_9lx7jZgL3S7Ofa-328" source="vRwU5_9lx7jZgL3S7Ofa-332" target="vRwU5_9lx7jZgL3S7Ofa-338">
          <mxGeometry width="50" height="50" relative="1" as="geometry">
            <mxPoint x="91" y="100.38461538461539" as="sourcePoint" />
            <mxPoint x="126" y="65.76923076923077" as="targetPoint" />
          </mxGeometry>
        </mxCell>
        <mxCell id="vRwU5_9lx7jZgL3S7Ofa-358" value="" style="endArrow=none;html=1;rounded=0;entryX=0;entryY=0.5;entryDx=0;entryDy=0;" edge="1" parent="vRwU5_9lx7jZgL3S7Ofa-328" target="vRwU5_9lx7jZgL3S7Ofa-338">
          <mxGeometry width="50" height="50" relative="1" as="geometry">
            <mxPoint x="98" y="83.07692307692308" as="sourcePoint" />
            <mxPoint x="133" y="55.38461538461539" as="targetPoint" />
          </mxGeometry>
        </mxCell>
        <mxCell id="vRwU5_9lx7jZgL3S7Ofa-359" value="" style="endArrow=none;html=1;rounded=0;exitX=1;exitY=0.5;exitDx=0;exitDy=0;" edge="1" parent="vRwU5_9lx7jZgL3S7Ofa-328" source="vRwU5_9lx7jZgL3S7Ofa-333">
          <mxGeometry width="50" height="50" relative="1" as="geometry">
            <mxPoint x="91" y="96.92307692307693" as="sourcePoint" />
            <mxPoint x="126" y="69.23076923076923" as="targetPoint" />
          </mxGeometry>
        </mxCell>
        <mxCell id="vRwU5_9lx7jZgL3S7Ofa-361" value="&lt;font face=&quot;Comic Sans MS&quot;&gt;Embedding Model + Prototype network&lt;/font&gt;" style="text;html=1;whiteSpace=wrap;strokeColor=none;fillColor=none;align=center;verticalAlign=middle;rounded=0;" vertex="1" parent="1">
          <mxGeometry x="440" y="690" width="220" height="30" as="geometry" />
        </mxCell>
        <mxCell id="vRwU5_9lx7jZgL3S7Ofa-362" value="" style="group" vertex="1" connectable="0" parent="1">
          <mxGeometry x="510" y="510" width="60" height="80" as="geometry" />
        </mxCell>
        <mxCell id="vRwU5_9lx7jZgL3S7Ofa-363" value="" style="shape=cylinder3;whiteSpace=wrap;html=1;boundedLbl=1;backgroundOutline=1;size=15;fillColor=#fff2cc;strokeColor=#d6b656;" vertex="1" parent="vRwU5_9lx7jZgL3S7Ofa-362">
          <mxGeometry width="60" height="80" as="geometry" />
        </mxCell>
        <mxCell id="vRwU5_9lx7jZgL3S7Ofa-364" value="&lt;font face=&quot;Comic Sans MS&quot;&gt;Local data&lt;/font&gt;" style="text;html=1;whiteSpace=wrap;strokeColor=none;fillColor=none;align=center;verticalAlign=middle;rounded=0;" vertex="1" parent="vRwU5_9lx7jZgL3S7Ofa-362">
          <mxGeometry x="5" y="40" width="50" height="30" as="geometry" />
        </mxCell>
        <mxCell id="vRwU5_9lx7jZgL3S7Ofa-366" value="" style="rounded=1;whiteSpace=wrap;html=1;fillColor=#d5e8d4;strokeColor=#82b366;" vertex="1" parent="1">
          <mxGeometry x="750" y="500" width="260" height="230" as="geometry" />
        </mxCell>
        <mxCell id="vRwU5_9lx7jZgL3S7Ofa-367" value="" style="group" vertex="1" connectable="0" parent="1">
          <mxGeometry x="800" y="600" width="140" height="90" as="geometry" />
        </mxCell>
        <mxCell id="vRwU5_9lx7jZgL3S7Ofa-368" value="" style="ellipse;whiteSpace=wrap;html=1;aspect=fixed;container=0;fillColor=#f5f5f5;fontColor=#333333;strokeColor=#666666;" vertex="1" parent="vRwU5_9lx7jZgL3S7Ofa-367">
          <mxGeometry x="42" width="13.846153846153847" height="13.846153846153847" as="geometry" />
        </mxCell>
        <mxCell id="vRwU5_9lx7jZgL3S7Ofa-369" value="" style="ellipse;whiteSpace=wrap;html=1;aspect=fixed;container=0;fillColor=#f5f5f5;fontColor=#333333;strokeColor=#666666;" vertex="1" parent="vRwU5_9lx7jZgL3S7Ofa-367">
          <mxGeometry x="42" y="34.61538461538461" width="13.846153846153847" height="13.846153846153847" as="geometry" />
        </mxCell>
        <mxCell id="vRwU5_9lx7jZgL3S7Ofa-370" value="" style="ellipse;whiteSpace=wrap;html=1;aspect=fixed;container=0;fillColor=#f5f5f5;fontColor=#333333;strokeColor=#666666;" vertex="1" parent="vRwU5_9lx7jZgL3S7Ofa-367">
          <mxGeometry x="42" y="76.15384615384616" width="13.846153846153847" height="13.846153846153847" as="geometry" />
        </mxCell>
        <mxCell id="vRwU5_9lx7jZgL3S7Ofa-371" value="" style="ellipse;whiteSpace=wrap;html=1;aspect=fixed;container=0;fillColor=#f5f5f5;fontColor=#333333;strokeColor=#666666;" vertex="1" parent="vRwU5_9lx7jZgL3S7Ofa-367">
          <mxGeometry x="84" width="13.846153846153847" height="13.846153846153847" as="geometry" />
        </mxCell>
        <mxCell id="vRwU5_9lx7jZgL3S7Ofa-372" value="" style="ellipse;whiteSpace=wrap;html=1;aspect=fixed;container=0;fillColor=#f5f5f5;fontColor=#333333;strokeColor=#666666;" vertex="1" parent="vRwU5_9lx7jZgL3S7Ofa-367">
          <mxGeometry x="84" y="34.61538461538461" width="13.846153846153847" height="13.846153846153847" as="geometry" />
        </mxCell>
        <mxCell id="vRwU5_9lx7jZgL3S7Ofa-373" value="" style="ellipse;whiteSpace=wrap;html=1;aspect=fixed;container=0;fillColor=#f5f5f5;fontColor=#333333;strokeColor=#666666;" vertex="1" parent="vRwU5_9lx7jZgL3S7Ofa-367">
          <mxGeometry x="84" y="76.15384615384616" width="13.846153846153847" height="13.846153846153847" as="geometry" />
        </mxCell>
        <mxCell id="vRwU5_9lx7jZgL3S7Ofa-374" value="" style="ellipse;whiteSpace=wrap;html=1;aspect=fixed;container=0;fillColor=#f5f5f5;fontColor=#333333;strokeColor=#666666;" vertex="1" parent="vRwU5_9lx7jZgL3S7Ofa-367">
          <mxGeometry y="20.76923076923077" width="13.846153846153847" height="13.846153846153847" as="geometry" />
        </mxCell>
        <mxCell id="vRwU5_9lx7jZgL3S7Ofa-375" value="" style="ellipse;whiteSpace=wrap;html=1;aspect=fixed;container=0;fillColor=#f5f5f5;fontColor=#333333;strokeColor=#666666;" vertex="1" parent="vRwU5_9lx7jZgL3S7Ofa-367">
          <mxGeometry y="62.30769230769231" width="13.846153846153847" height="13.846153846153847" as="geometry" />
        </mxCell>
        <mxCell id="vRwU5_9lx7jZgL3S7Ofa-376" value="" style="ellipse;whiteSpace=wrap;html=1;aspect=fixed;container=0;fillColor=#f5f5f5;fontColor=#333333;strokeColor=#666666;" vertex="1" parent="vRwU5_9lx7jZgL3S7Ofa-367">
          <mxGeometry x="126" y="20.76923076923077" width="13.846153846153847" height="13.846153846153847" as="geometry" />
        </mxCell>
        <mxCell id="vRwU5_9lx7jZgL3S7Ofa-377" value="" style="ellipse;whiteSpace=wrap;html=1;aspect=fixed;container=0;fillColor=#f5f5f5;fontColor=#333333;strokeColor=#666666;" vertex="1" parent="vRwU5_9lx7jZgL3S7Ofa-367">
          <mxGeometry x="126" y="62.30769230769231" width="13.846153846153847" height="13.846153846153847" as="geometry" />
        </mxCell>
        <mxCell id="vRwU5_9lx7jZgL3S7Ofa-378" value="" style="endArrow=none;html=1;rounded=0;entryX=0;entryY=0.5;entryDx=0;entryDy=0;entryPerimeter=0;exitX=1;exitY=0.5;exitDx=0;exitDy=0;" edge="1" parent="vRwU5_9lx7jZgL3S7Ofa-367" source="vRwU5_9lx7jZgL3S7Ofa-369" target="vRwU5_9lx7jZgL3S7Ofa-371">
          <mxGeometry width="50" height="50" relative="1" as="geometry">
            <mxPoint x="56" y="38.07692307692308" as="sourcePoint" />
            <mxPoint x="91" y="3.4615384615384617" as="targetPoint" />
          </mxGeometry>
        </mxCell>
        <mxCell id="vRwU5_9lx7jZgL3S7Ofa-379" value="" style="endArrow=none;html=1;rounded=0;entryX=0;entryY=0.5;entryDx=0;entryDy=0;exitX=1;exitY=0.5;exitDx=0;exitDy=0;" edge="1" parent="vRwU5_9lx7jZgL3S7Ofa-367" source="vRwU5_9lx7jZgL3S7Ofa-369" target="vRwU5_9lx7jZgL3S7Ofa-372">
          <mxGeometry width="50" height="50" relative="1" as="geometry">
            <mxPoint x="56" y="57.46153846153846" as="sourcePoint" />
            <mxPoint x="86.1" y="27.692307692307693" as="targetPoint" />
          </mxGeometry>
        </mxCell>
        <mxCell id="vRwU5_9lx7jZgL3S7Ofa-380" value="" style="endArrow=none;html=1;rounded=0;" edge="1" parent="vRwU5_9lx7jZgL3S7Ofa-367">
          <mxGeometry width="50" height="50" relative="1" as="geometry">
            <mxPoint x="56" y="41.53846153846154" as="sourcePoint" />
            <mxPoint x="84" y="83.07692307692308" as="targetPoint" />
          </mxGeometry>
        </mxCell>
        <mxCell id="vRwU5_9lx7jZgL3S7Ofa-381" value="" style="endArrow=none;html=1;rounded=0;exitX=1;exitY=0.5;exitDx=0;exitDy=0;entryX=0;entryY=0.5;entryDx=0;entryDy=0;" edge="1" parent="vRwU5_9lx7jZgL3S7Ofa-367" source="vRwU5_9lx7jZgL3S7Ofa-368" target="vRwU5_9lx7jZgL3S7Ofa-371">
          <mxGeometry width="50" height="50" relative="1" as="geometry">
            <mxPoint x="98" y="48.46153846153847" as="sourcePoint" />
            <mxPoint x="133" y="13.846153846153847" as="targetPoint" />
          </mxGeometry>
        </mxCell>
        <mxCell id="vRwU5_9lx7jZgL3S7Ofa-382" value="" style="endArrow=none;html=1;rounded=0;entryX=0;entryY=0.5;entryDx=0;entryDy=0;" edge="1" parent="vRwU5_9lx7jZgL3S7Ofa-367" target="vRwU5_9lx7jZgL3S7Ofa-372">
          <mxGeometry width="50" height="50" relative="1" as="geometry">
            <mxPoint x="56" y="6.923076923076923" as="sourcePoint" />
            <mxPoint x="91" y="6.923076923076923" as="targetPoint" />
          </mxGeometry>
        </mxCell>
        <mxCell id="vRwU5_9lx7jZgL3S7Ofa-383" value="" style="endArrow=none;html=1;rounded=0;exitX=1;exitY=0.5;exitDx=0;exitDy=0;" edge="1" parent="vRwU5_9lx7jZgL3S7Ofa-367" source="vRwU5_9lx7jZgL3S7Ofa-368">
          <mxGeometry width="50" height="50" relative="1" as="geometry">
            <mxPoint x="70" y="27.692307692307693" as="sourcePoint" />
            <mxPoint x="84" y="83.07692307692308" as="targetPoint" />
          </mxGeometry>
        </mxCell>
        <mxCell id="vRwU5_9lx7jZgL3S7Ofa-384" value="" style="endArrow=none;html=1;rounded=0;entryX=0;entryY=0.5;entryDx=0;entryDy=0;exitX=1;exitY=0.5;exitDx=0;exitDy=0;" edge="1" parent="vRwU5_9lx7jZgL3S7Ofa-367" source="vRwU5_9lx7jZgL3S7Ofa-370" target="vRwU5_9lx7jZgL3S7Ofa-371">
          <mxGeometry width="50" height="50" relative="1" as="geometry">
            <mxPoint x="49" y="76.15384615384616" as="sourcePoint" />
            <mxPoint x="84" y="41.53846153846154" as="targetPoint" />
          </mxGeometry>
        </mxCell>
        <mxCell id="vRwU5_9lx7jZgL3S7Ofa-385" value="" style="endArrow=none;html=1;rounded=0;entryX=0;entryY=0.5;entryDx=0;entryDy=0;exitX=1;exitY=0.5;exitDx=0;exitDy=0;" edge="1" parent="vRwU5_9lx7jZgL3S7Ofa-367" source="vRwU5_9lx7jZgL3S7Ofa-370" target="vRwU5_9lx7jZgL3S7Ofa-372">
          <mxGeometry width="50" height="50" relative="1" as="geometry">
            <mxPoint x="56" y="76.15384615384616" as="sourcePoint" />
            <mxPoint x="91" y="41.53846153846154" as="targetPoint" />
          </mxGeometry>
        </mxCell>
        <mxCell id="vRwU5_9lx7jZgL3S7Ofa-386" value="" style="endArrow=none;html=1;rounded=0;exitX=1;exitY=0.5;exitDx=0;exitDy=0;entryX=0;entryY=0.5;entryDx=0;entryDy=0;" edge="1" parent="vRwU5_9lx7jZgL3S7Ofa-367">
          <mxGeometry width="50" height="50" relative="1" as="geometry">
            <mxPoint x="56" y="83.0076923076923" as="sourcePoint" />
            <mxPoint x="84" y="83.0076923076923" as="targetPoint" />
          </mxGeometry>
        </mxCell>
        <mxCell id="vRwU5_9lx7jZgL3S7Ofa-387" value="" style="endArrow=none;html=1;rounded=0;entryX=0;entryY=0.5;entryDx=0;entryDy=0;" edge="1" parent="vRwU5_9lx7jZgL3S7Ofa-367" target="vRwU5_9lx7jZgL3S7Ofa-368">
          <mxGeometry width="50" height="50" relative="1" as="geometry">
            <mxPoint x="14" y="27.692307692307693" as="sourcePoint" />
            <mxPoint x="49" y="-6.923076923076923" as="targetPoint" />
          </mxGeometry>
        </mxCell>
        <mxCell id="vRwU5_9lx7jZgL3S7Ofa-388" value="" style="endArrow=none;html=1;rounded=0;entryX=0;entryY=0.5;entryDx=0;entryDy=0;" edge="1" parent="vRwU5_9lx7jZgL3S7Ofa-367" target="vRwU5_9lx7jZgL3S7Ofa-369">
          <mxGeometry width="50" height="50" relative="1" as="geometry">
            <mxPoint x="14" y="27.692307692307693" as="sourcePoint" />
            <mxPoint x="98" y="27.692307692307693" as="targetPoint" />
          </mxGeometry>
        </mxCell>
        <mxCell id="vRwU5_9lx7jZgL3S7Ofa-389" value="" style="endArrow=none;html=1;rounded=0;entryX=0;entryY=0.5;entryDx=0;entryDy=0;exitX=1;exitY=0.5;exitDx=0;exitDy=0;" edge="1" parent="vRwU5_9lx7jZgL3S7Ofa-367" source="vRwU5_9lx7jZgL3S7Ofa-374" target="vRwU5_9lx7jZgL3S7Ofa-370">
          <mxGeometry width="50" height="50" relative="1" as="geometry">
            <mxPoint x="10.5" y="34.61538461538461" as="sourcePoint" />
            <mxPoint x="38.5" y="48.46153846153847" as="targetPoint" />
          </mxGeometry>
        </mxCell>
        <mxCell id="vRwU5_9lx7jZgL3S7Ofa-390" value="" style="endArrow=none;html=1;rounded=0;entryX=0;entryY=0.5;entryDx=0;entryDy=0;exitX=1;exitY=0.5;exitDx=0;exitDy=0;" edge="1" parent="vRwU5_9lx7jZgL3S7Ofa-367" source="vRwU5_9lx7jZgL3S7Ofa-375" target="vRwU5_9lx7jZgL3S7Ofa-368">
          <mxGeometry width="50" height="50" relative="1" as="geometry">
            <mxPoint x="14" y="65.76923076923077" as="sourcePoint" />
            <mxPoint x="49" y="31.153846153846153" as="targetPoint" />
          </mxGeometry>
        </mxCell>
        <mxCell id="vRwU5_9lx7jZgL3S7Ofa-391" value="" style="endArrow=none;html=1;rounded=0;entryX=0;entryY=0.5;entryDx=0;entryDy=0;" edge="1" parent="vRwU5_9lx7jZgL3S7Ofa-367" target="vRwU5_9lx7jZgL3S7Ofa-370">
          <mxGeometry width="50" height="50" relative="1" as="geometry">
            <mxPoint x="14" y="69.23076923076923" as="sourcePoint" />
            <mxPoint x="49" y="51.92307692307693" as="targetPoint" />
          </mxGeometry>
        </mxCell>
        <mxCell id="vRwU5_9lx7jZgL3S7Ofa-392" value="" style="endArrow=none;html=1;rounded=0;exitX=1.069;exitY=0.458;exitDx=0;exitDy=0;exitPerimeter=0;entryX=0;entryY=0.5;entryDx=0;entryDy=0;" edge="1" parent="vRwU5_9lx7jZgL3S7Ofa-367" source="vRwU5_9lx7jZgL3S7Ofa-375" target="vRwU5_9lx7jZgL3S7Ofa-369">
          <mxGeometry width="50" height="50" relative="1" as="geometry">
            <mxPoint x="14" y="76.15384615384616" as="sourcePoint" />
            <mxPoint x="49" y="41.53846153846154" as="targetPoint" />
          </mxGeometry>
        </mxCell>
        <mxCell id="vRwU5_9lx7jZgL3S7Ofa-393" value="" style="endArrow=none;html=1;rounded=0;exitX=1;exitY=0.5;exitDx=0;exitDy=0;entryX=0;entryY=0.5;entryDx=0;entryDy=0;" edge="1" parent="vRwU5_9lx7jZgL3S7Ofa-367" source="vRwU5_9lx7jZgL3S7Ofa-371" target="vRwU5_9lx7jZgL3S7Ofa-376">
          <mxGeometry width="50" height="50" relative="1" as="geometry">
            <mxPoint x="98" y="45" as="sourcePoint" />
            <mxPoint x="133" y="10.384615384615385" as="targetPoint" />
          </mxGeometry>
        </mxCell>
        <mxCell id="vRwU5_9lx7jZgL3S7Ofa-394" value="" style="endArrow=none;html=1;rounded=0;exitX=1;exitY=0.5;exitDx=0;exitDy=0;entryX=0;entryY=0.5;entryDx=0;entryDy=0;" edge="1" parent="vRwU5_9lx7jZgL3S7Ofa-367" source="vRwU5_9lx7jZgL3S7Ofa-372" target="vRwU5_9lx7jZgL3S7Ofa-376">
          <mxGeometry width="50" height="50" relative="1" as="geometry">
            <mxPoint x="98" y="55.38461538461539" as="sourcePoint" />
            <mxPoint x="133" y="20.76923076923077" as="targetPoint" />
          </mxGeometry>
        </mxCell>
        <mxCell id="vRwU5_9lx7jZgL3S7Ofa-395" value="" style="endArrow=none;html=1;rounded=0;exitX=1;exitY=0.5;exitDx=0;exitDy=0;" edge="1" parent="vRwU5_9lx7jZgL3S7Ofa-367" source="vRwU5_9lx7jZgL3S7Ofa-373">
          <mxGeometry width="50" height="50" relative="1" as="geometry">
            <mxPoint x="91" y="62.30769230769231" as="sourcePoint" />
            <mxPoint x="126" y="27.692307692307693" as="targetPoint" />
          </mxGeometry>
        </mxCell>
        <mxCell id="vRwU5_9lx7jZgL3S7Ofa-396" value="" style="endArrow=none;html=1;rounded=0;exitX=1;exitY=0.5;exitDx=0;exitDy=0;entryX=0;entryY=0.5;entryDx=0;entryDy=0;" edge="1" parent="vRwU5_9lx7jZgL3S7Ofa-367" source="vRwU5_9lx7jZgL3S7Ofa-371" target="vRwU5_9lx7jZgL3S7Ofa-377">
          <mxGeometry width="50" height="50" relative="1" as="geometry">
            <mxPoint x="91" y="100.38461538461539" as="sourcePoint" />
            <mxPoint x="126" y="65.76923076923077" as="targetPoint" />
          </mxGeometry>
        </mxCell>
        <mxCell id="vRwU5_9lx7jZgL3S7Ofa-397" value="" style="endArrow=none;html=1;rounded=0;entryX=0;entryY=0.5;entryDx=0;entryDy=0;" edge="1" parent="vRwU5_9lx7jZgL3S7Ofa-367" target="vRwU5_9lx7jZgL3S7Ofa-377">
          <mxGeometry width="50" height="50" relative="1" as="geometry">
            <mxPoint x="98" y="83.07692307692308" as="sourcePoint" />
            <mxPoint x="133" y="55.38461538461539" as="targetPoint" />
          </mxGeometry>
        </mxCell>
        <mxCell id="vRwU5_9lx7jZgL3S7Ofa-398" value="" style="endArrow=none;html=1;rounded=0;exitX=1;exitY=0.5;exitDx=0;exitDy=0;" edge="1" parent="vRwU5_9lx7jZgL3S7Ofa-367" source="vRwU5_9lx7jZgL3S7Ofa-372">
          <mxGeometry width="50" height="50" relative="1" as="geometry">
            <mxPoint x="91" y="96.92307692307693" as="sourcePoint" />
            <mxPoint x="126" y="69.23076923076923" as="targetPoint" />
          </mxGeometry>
        </mxCell>
        <mxCell id="vRwU5_9lx7jZgL3S7Ofa-400" value="&lt;font face=&quot;Comic Sans MS&quot;&gt;Embedding Model + Prototype network&lt;/font&gt;" style="text;html=1;whiteSpace=wrap;strokeColor=none;fillColor=none;align=center;verticalAlign=middle;rounded=0;" vertex="1" parent="1">
          <mxGeometry x="770" y="690" width="220" height="30" as="geometry" />
        </mxCell>
        <mxCell id="vRwU5_9lx7jZgL3S7Ofa-401" value="" style="group" vertex="1" connectable="0" parent="1">
          <mxGeometry x="840" y="510" width="60" height="80" as="geometry" />
        </mxCell>
        <mxCell id="vRwU5_9lx7jZgL3S7Ofa-402" value="" style="shape=cylinder3;whiteSpace=wrap;html=1;boundedLbl=1;backgroundOutline=1;size=15;fillColor=#fff2cc;strokeColor=#d6b656;" vertex="1" parent="vRwU5_9lx7jZgL3S7Ofa-401">
          <mxGeometry width="60" height="80" as="geometry" />
        </mxCell>
        <mxCell id="vRwU5_9lx7jZgL3S7Ofa-403" value="&lt;font face=&quot;Comic Sans MS&quot;&gt;Local data&lt;/font&gt;" style="text;html=1;whiteSpace=wrap;strokeColor=none;fillColor=none;align=center;verticalAlign=middle;rounded=0;" vertex="1" parent="vRwU5_9lx7jZgL3S7Ofa-401">
          <mxGeometry x="5" y="40" width="50" height="30" as="geometry" />
        </mxCell>
        <mxCell id="vRwU5_9lx7jZgL3S7Ofa-404" value="" style="rounded=1;whiteSpace=wrap;html=1;fillColor=#d5e8d4;strokeColor=#82b366;" vertex="1" parent="1">
          <mxGeometry x="1070" y="500" width="260" height="230" as="geometry" />
        </mxCell>
        <mxCell id="vRwU5_9lx7jZgL3S7Ofa-405" value="" style="group" vertex="1" connectable="0" parent="1">
          <mxGeometry x="1120" y="600" width="140" height="90" as="geometry" />
        </mxCell>
        <mxCell id="vRwU5_9lx7jZgL3S7Ofa-406" value="" style="ellipse;whiteSpace=wrap;html=1;aspect=fixed;container=0;fillColor=#f5f5f5;fontColor=#333333;strokeColor=#666666;" vertex="1" parent="vRwU5_9lx7jZgL3S7Ofa-405">
          <mxGeometry x="42" width="13.846153846153847" height="13.846153846153847" as="geometry" />
        </mxCell>
        <mxCell id="vRwU5_9lx7jZgL3S7Ofa-407" value="" style="ellipse;whiteSpace=wrap;html=1;aspect=fixed;container=0;fillColor=#f5f5f5;fontColor=#333333;strokeColor=#666666;" vertex="1" parent="vRwU5_9lx7jZgL3S7Ofa-405">
          <mxGeometry x="42" y="34.61538461538461" width="13.846153846153847" height="13.846153846153847" as="geometry" />
        </mxCell>
        <mxCell id="vRwU5_9lx7jZgL3S7Ofa-408" value="" style="ellipse;whiteSpace=wrap;html=1;aspect=fixed;container=0;fillColor=#f5f5f5;fontColor=#333333;strokeColor=#666666;" vertex="1" parent="vRwU5_9lx7jZgL3S7Ofa-405">
          <mxGeometry x="42" y="76.15384615384616" width="13.846153846153847" height="13.846153846153847" as="geometry" />
        </mxCell>
        <mxCell id="vRwU5_9lx7jZgL3S7Ofa-409" value="" style="ellipse;whiteSpace=wrap;html=1;aspect=fixed;container=0;fillColor=#f5f5f5;fontColor=#333333;strokeColor=#666666;" vertex="1" parent="vRwU5_9lx7jZgL3S7Ofa-405">
          <mxGeometry x="84" width="13.846153846153847" height="13.846153846153847" as="geometry" />
        </mxCell>
        <mxCell id="vRwU5_9lx7jZgL3S7Ofa-410" value="" style="ellipse;whiteSpace=wrap;html=1;aspect=fixed;container=0;fillColor=#f5f5f5;fontColor=#333333;strokeColor=#666666;" vertex="1" parent="vRwU5_9lx7jZgL3S7Ofa-405">
          <mxGeometry x="84" y="34.61538461538461" width="13.846153846153847" height="13.846153846153847" as="geometry" />
        </mxCell>
        <mxCell id="vRwU5_9lx7jZgL3S7Ofa-411" value="" style="ellipse;whiteSpace=wrap;html=1;aspect=fixed;container=0;fillColor=#f5f5f5;fontColor=#333333;strokeColor=#666666;" vertex="1" parent="vRwU5_9lx7jZgL3S7Ofa-405">
          <mxGeometry x="84" y="76.15384615384616" width="13.846153846153847" height="13.846153846153847" as="geometry" />
        </mxCell>
        <mxCell id="vRwU5_9lx7jZgL3S7Ofa-412" value="" style="ellipse;whiteSpace=wrap;html=1;aspect=fixed;container=0;fillColor=#f5f5f5;fontColor=#333333;strokeColor=#666666;" vertex="1" parent="vRwU5_9lx7jZgL3S7Ofa-405">
          <mxGeometry y="20.76923076923077" width="13.846153846153847" height="13.846153846153847" as="geometry" />
        </mxCell>
        <mxCell id="vRwU5_9lx7jZgL3S7Ofa-413" value="" style="ellipse;whiteSpace=wrap;html=1;aspect=fixed;container=0;fillColor=#f5f5f5;fontColor=#333333;strokeColor=#666666;" vertex="1" parent="vRwU5_9lx7jZgL3S7Ofa-405">
          <mxGeometry y="62.30769230769231" width="13.846153846153847" height="13.846153846153847" as="geometry" />
        </mxCell>
        <mxCell id="vRwU5_9lx7jZgL3S7Ofa-414" value="" style="ellipse;whiteSpace=wrap;html=1;aspect=fixed;container=0;fillColor=#f5f5f5;fontColor=#333333;strokeColor=#666666;" vertex="1" parent="vRwU5_9lx7jZgL3S7Ofa-405">
          <mxGeometry x="126" y="20.76923076923077" width="13.846153846153847" height="13.846153846153847" as="geometry" />
        </mxCell>
        <mxCell id="vRwU5_9lx7jZgL3S7Ofa-415" value="" style="ellipse;whiteSpace=wrap;html=1;aspect=fixed;container=0;fillColor=#f5f5f5;fontColor=#333333;strokeColor=#666666;" vertex="1" parent="vRwU5_9lx7jZgL3S7Ofa-405">
          <mxGeometry x="126" y="62.30769230769231" width="13.846153846153847" height="13.846153846153847" as="geometry" />
        </mxCell>
        <mxCell id="vRwU5_9lx7jZgL3S7Ofa-416" value="" style="endArrow=none;html=1;rounded=0;entryX=0;entryY=0.5;entryDx=0;entryDy=0;entryPerimeter=0;exitX=1;exitY=0.5;exitDx=0;exitDy=0;" edge="1" parent="vRwU5_9lx7jZgL3S7Ofa-405" source="vRwU5_9lx7jZgL3S7Ofa-407" target="vRwU5_9lx7jZgL3S7Ofa-409">
          <mxGeometry width="50" height="50" relative="1" as="geometry">
            <mxPoint x="56" y="38.07692307692308" as="sourcePoint" />
            <mxPoint x="91" y="3.4615384615384617" as="targetPoint" />
          </mxGeometry>
        </mxCell>
        <mxCell id="vRwU5_9lx7jZgL3S7Ofa-417" value="" style="endArrow=none;html=1;rounded=0;entryX=0;entryY=0.5;entryDx=0;entryDy=0;exitX=1;exitY=0.5;exitDx=0;exitDy=0;" edge="1" parent="vRwU5_9lx7jZgL3S7Ofa-405" source="vRwU5_9lx7jZgL3S7Ofa-407" target="vRwU5_9lx7jZgL3S7Ofa-410">
          <mxGeometry width="50" height="50" relative="1" as="geometry">
            <mxPoint x="56" y="57.46153846153846" as="sourcePoint" />
            <mxPoint x="86.1" y="27.692307692307693" as="targetPoint" />
          </mxGeometry>
        </mxCell>
        <mxCell id="vRwU5_9lx7jZgL3S7Ofa-418" value="" style="endArrow=none;html=1;rounded=0;" edge="1" parent="vRwU5_9lx7jZgL3S7Ofa-405">
          <mxGeometry width="50" height="50" relative="1" as="geometry">
            <mxPoint x="56" y="41.53846153846154" as="sourcePoint" />
            <mxPoint x="84" y="83.07692307692308" as="targetPoint" />
          </mxGeometry>
        </mxCell>
        <mxCell id="vRwU5_9lx7jZgL3S7Ofa-419" value="" style="endArrow=none;html=1;rounded=0;exitX=1;exitY=0.5;exitDx=0;exitDy=0;entryX=0;entryY=0.5;entryDx=0;entryDy=0;" edge="1" parent="vRwU5_9lx7jZgL3S7Ofa-405" source="vRwU5_9lx7jZgL3S7Ofa-406" target="vRwU5_9lx7jZgL3S7Ofa-409">
          <mxGeometry width="50" height="50" relative="1" as="geometry">
            <mxPoint x="98" y="48.46153846153847" as="sourcePoint" />
            <mxPoint x="133" y="13.846153846153847" as="targetPoint" />
          </mxGeometry>
        </mxCell>
        <mxCell id="vRwU5_9lx7jZgL3S7Ofa-420" value="" style="endArrow=none;html=1;rounded=0;entryX=0;entryY=0.5;entryDx=0;entryDy=0;" edge="1" parent="vRwU5_9lx7jZgL3S7Ofa-405" target="vRwU5_9lx7jZgL3S7Ofa-410">
          <mxGeometry width="50" height="50" relative="1" as="geometry">
            <mxPoint x="56" y="6.923076923076923" as="sourcePoint" />
            <mxPoint x="91" y="6.923076923076923" as="targetPoint" />
          </mxGeometry>
        </mxCell>
        <mxCell id="vRwU5_9lx7jZgL3S7Ofa-421" value="" style="endArrow=none;html=1;rounded=0;exitX=1;exitY=0.5;exitDx=0;exitDy=0;" edge="1" parent="vRwU5_9lx7jZgL3S7Ofa-405" source="vRwU5_9lx7jZgL3S7Ofa-406">
          <mxGeometry width="50" height="50" relative="1" as="geometry">
            <mxPoint x="70" y="27.692307692307693" as="sourcePoint" />
            <mxPoint x="84" y="83.07692307692308" as="targetPoint" />
          </mxGeometry>
        </mxCell>
        <mxCell id="vRwU5_9lx7jZgL3S7Ofa-422" value="" style="endArrow=none;html=1;rounded=0;entryX=0;entryY=0.5;entryDx=0;entryDy=0;exitX=1;exitY=0.5;exitDx=0;exitDy=0;" edge="1" parent="vRwU5_9lx7jZgL3S7Ofa-405" source="vRwU5_9lx7jZgL3S7Ofa-408" target="vRwU5_9lx7jZgL3S7Ofa-409">
          <mxGeometry width="50" height="50" relative="1" as="geometry">
            <mxPoint x="49" y="76.15384615384616" as="sourcePoint" />
            <mxPoint x="84" y="41.53846153846154" as="targetPoint" />
          </mxGeometry>
        </mxCell>
        <mxCell id="vRwU5_9lx7jZgL3S7Ofa-423" value="" style="endArrow=none;html=1;rounded=0;entryX=0;entryY=0.5;entryDx=0;entryDy=0;exitX=1;exitY=0.5;exitDx=0;exitDy=0;" edge="1" parent="vRwU5_9lx7jZgL3S7Ofa-405" source="vRwU5_9lx7jZgL3S7Ofa-408" target="vRwU5_9lx7jZgL3S7Ofa-410">
          <mxGeometry width="50" height="50" relative="1" as="geometry">
            <mxPoint x="56" y="76.15384615384616" as="sourcePoint" />
            <mxPoint x="91" y="41.53846153846154" as="targetPoint" />
          </mxGeometry>
        </mxCell>
        <mxCell id="vRwU5_9lx7jZgL3S7Ofa-424" value="" style="endArrow=none;html=1;rounded=0;exitX=1;exitY=0.5;exitDx=0;exitDy=0;entryX=0;entryY=0.5;entryDx=0;entryDy=0;" edge="1" parent="vRwU5_9lx7jZgL3S7Ofa-405">
          <mxGeometry width="50" height="50" relative="1" as="geometry">
            <mxPoint x="56" y="83.0076923076923" as="sourcePoint" />
            <mxPoint x="84" y="83.0076923076923" as="targetPoint" />
          </mxGeometry>
        </mxCell>
        <mxCell id="vRwU5_9lx7jZgL3S7Ofa-425" value="" style="endArrow=none;html=1;rounded=0;entryX=0;entryY=0.5;entryDx=0;entryDy=0;" edge="1" parent="vRwU5_9lx7jZgL3S7Ofa-405" target="vRwU5_9lx7jZgL3S7Ofa-406">
          <mxGeometry width="50" height="50" relative="1" as="geometry">
            <mxPoint x="14" y="27.692307692307693" as="sourcePoint" />
            <mxPoint x="49" y="-6.923076923076923" as="targetPoint" />
          </mxGeometry>
        </mxCell>
        <mxCell id="vRwU5_9lx7jZgL3S7Ofa-426" value="" style="endArrow=none;html=1;rounded=0;entryX=0;entryY=0.5;entryDx=0;entryDy=0;" edge="1" parent="vRwU5_9lx7jZgL3S7Ofa-405" target="vRwU5_9lx7jZgL3S7Ofa-407">
          <mxGeometry width="50" height="50" relative="1" as="geometry">
            <mxPoint x="14" y="27.692307692307693" as="sourcePoint" />
            <mxPoint x="98" y="27.692307692307693" as="targetPoint" />
          </mxGeometry>
        </mxCell>
        <mxCell id="vRwU5_9lx7jZgL3S7Ofa-427" value="" style="endArrow=none;html=1;rounded=0;entryX=0;entryY=0.5;entryDx=0;entryDy=0;exitX=1;exitY=0.5;exitDx=0;exitDy=0;" edge="1" parent="vRwU5_9lx7jZgL3S7Ofa-405" source="vRwU5_9lx7jZgL3S7Ofa-412" target="vRwU5_9lx7jZgL3S7Ofa-408">
          <mxGeometry width="50" height="50" relative="1" as="geometry">
            <mxPoint x="10.5" y="34.61538461538461" as="sourcePoint" />
            <mxPoint x="38.5" y="48.46153846153847" as="targetPoint" />
          </mxGeometry>
        </mxCell>
        <mxCell id="vRwU5_9lx7jZgL3S7Ofa-428" value="" style="endArrow=none;html=1;rounded=0;entryX=0;entryY=0.5;entryDx=0;entryDy=0;exitX=1;exitY=0.5;exitDx=0;exitDy=0;" edge="1" parent="vRwU5_9lx7jZgL3S7Ofa-405" source="vRwU5_9lx7jZgL3S7Ofa-413" target="vRwU5_9lx7jZgL3S7Ofa-406">
          <mxGeometry width="50" height="50" relative="1" as="geometry">
            <mxPoint x="14" y="65.76923076923077" as="sourcePoint" />
            <mxPoint x="49" y="31.153846153846153" as="targetPoint" />
          </mxGeometry>
        </mxCell>
        <mxCell id="vRwU5_9lx7jZgL3S7Ofa-429" value="" style="endArrow=none;html=1;rounded=0;entryX=0;entryY=0.5;entryDx=0;entryDy=0;" edge="1" parent="vRwU5_9lx7jZgL3S7Ofa-405" target="vRwU5_9lx7jZgL3S7Ofa-408">
          <mxGeometry width="50" height="50" relative="1" as="geometry">
            <mxPoint x="14" y="69.23076923076923" as="sourcePoint" />
            <mxPoint x="49" y="51.92307692307693" as="targetPoint" />
          </mxGeometry>
        </mxCell>
        <mxCell id="vRwU5_9lx7jZgL3S7Ofa-430" value="" style="endArrow=none;html=1;rounded=0;exitX=1.069;exitY=0.458;exitDx=0;exitDy=0;exitPerimeter=0;entryX=0;entryY=0.5;entryDx=0;entryDy=0;" edge="1" parent="vRwU5_9lx7jZgL3S7Ofa-405" source="vRwU5_9lx7jZgL3S7Ofa-413" target="vRwU5_9lx7jZgL3S7Ofa-407">
          <mxGeometry width="50" height="50" relative="1" as="geometry">
            <mxPoint x="14" y="76.15384615384616" as="sourcePoint" />
            <mxPoint x="49" y="41.53846153846154" as="targetPoint" />
          </mxGeometry>
        </mxCell>
        <mxCell id="vRwU5_9lx7jZgL3S7Ofa-431" value="" style="endArrow=none;html=1;rounded=0;exitX=1;exitY=0.5;exitDx=0;exitDy=0;entryX=0;entryY=0.5;entryDx=0;entryDy=0;" edge="1" parent="vRwU5_9lx7jZgL3S7Ofa-405" source="vRwU5_9lx7jZgL3S7Ofa-409" target="vRwU5_9lx7jZgL3S7Ofa-414">
          <mxGeometry width="50" height="50" relative="1" as="geometry">
            <mxPoint x="98" y="45" as="sourcePoint" />
            <mxPoint x="133" y="10.384615384615385" as="targetPoint" />
          </mxGeometry>
        </mxCell>
        <mxCell id="vRwU5_9lx7jZgL3S7Ofa-432" value="" style="endArrow=none;html=1;rounded=0;exitX=1;exitY=0.5;exitDx=0;exitDy=0;entryX=0;entryY=0.5;entryDx=0;entryDy=0;" edge="1" parent="vRwU5_9lx7jZgL3S7Ofa-405" source="vRwU5_9lx7jZgL3S7Ofa-410" target="vRwU5_9lx7jZgL3S7Ofa-414">
          <mxGeometry width="50" height="50" relative="1" as="geometry">
            <mxPoint x="98" y="55.38461538461539" as="sourcePoint" />
            <mxPoint x="133" y="20.76923076923077" as="targetPoint" />
          </mxGeometry>
        </mxCell>
        <mxCell id="vRwU5_9lx7jZgL3S7Ofa-433" value="" style="endArrow=none;html=1;rounded=0;exitX=1;exitY=0.5;exitDx=0;exitDy=0;" edge="1" parent="vRwU5_9lx7jZgL3S7Ofa-405" source="vRwU5_9lx7jZgL3S7Ofa-411">
          <mxGeometry width="50" height="50" relative="1" as="geometry">
            <mxPoint x="91" y="62.30769230769231" as="sourcePoint" />
            <mxPoint x="126" y="27.692307692307693" as="targetPoint" />
          </mxGeometry>
        </mxCell>
        <mxCell id="vRwU5_9lx7jZgL3S7Ofa-434" value="" style="endArrow=none;html=1;rounded=0;exitX=1;exitY=0.5;exitDx=0;exitDy=0;entryX=0;entryY=0.5;entryDx=0;entryDy=0;" edge="1" parent="vRwU5_9lx7jZgL3S7Ofa-405" source="vRwU5_9lx7jZgL3S7Ofa-409" target="vRwU5_9lx7jZgL3S7Ofa-415">
          <mxGeometry width="50" height="50" relative="1" as="geometry">
            <mxPoint x="91" y="100.38461538461539" as="sourcePoint" />
            <mxPoint x="126" y="65.76923076923077" as="targetPoint" />
          </mxGeometry>
        </mxCell>
        <mxCell id="vRwU5_9lx7jZgL3S7Ofa-435" value="" style="endArrow=none;html=1;rounded=0;entryX=0;entryY=0.5;entryDx=0;entryDy=0;" edge="1" parent="vRwU5_9lx7jZgL3S7Ofa-405" target="vRwU5_9lx7jZgL3S7Ofa-415">
          <mxGeometry width="50" height="50" relative="1" as="geometry">
            <mxPoint x="98" y="83.07692307692308" as="sourcePoint" />
            <mxPoint x="133" y="55.38461538461539" as="targetPoint" />
          </mxGeometry>
        </mxCell>
        <mxCell id="vRwU5_9lx7jZgL3S7Ofa-436" value="" style="endArrow=none;html=1;rounded=0;exitX=1;exitY=0.5;exitDx=0;exitDy=0;" edge="1" parent="vRwU5_9lx7jZgL3S7Ofa-405" source="vRwU5_9lx7jZgL3S7Ofa-410">
          <mxGeometry width="50" height="50" relative="1" as="geometry">
            <mxPoint x="91" y="96.92307692307693" as="sourcePoint" />
            <mxPoint x="126" y="69.23076923076923" as="targetPoint" />
          </mxGeometry>
        </mxCell>
        <mxCell id="vRwU5_9lx7jZgL3S7Ofa-438" value="&lt;font face=&quot;Comic Sans MS&quot;&gt;Embedding Model + Prototype network&lt;/font&gt;" style="text;html=1;whiteSpace=wrap;strokeColor=none;fillColor=none;align=center;verticalAlign=middle;rounded=0;" vertex="1" parent="1">
          <mxGeometry x="1090" y="690" width="220" height="30" as="geometry" />
        </mxCell>
        <mxCell id="vRwU5_9lx7jZgL3S7Ofa-439" value="" style="group" vertex="1" connectable="0" parent="1">
          <mxGeometry x="1160" y="510" width="60" height="80" as="geometry" />
        </mxCell>
        <mxCell id="vRwU5_9lx7jZgL3S7Ofa-440" value="" style="shape=cylinder3;whiteSpace=wrap;html=1;boundedLbl=1;backgroundOutline=1;size=15;fillColor=#fff2cc;strokeColor=#d6b656;" vertex="1" parent="vRwU5_9lx7jZgL3S7Ofa-439">
          <mxGeometry width="60" height="80" as="geometry" />
        </mxCell>
        <mxCell id="vRwU5_9lx7jZgL3S7Ofa-441" value="&lt;font face=&quot;Comic Sans MS&quot;&gt;Local data&lt;/font&gt;" style="text;html=1;whiteSpace=wrap;strokeColor=none;fillColor=none;align=center;verticalAlign=middle;rounded=0;" vertex="1" parent="vRwU5_9lx7jZgL3S7Ofa-439">
          <mxGeometry x="5" y="40" width="50" height="30" as="geometry" />
        </mxCell>
        <mxCell id="vRwU5_9lx7jZgL3S7Ofa-448" value="&lt;font face=&quot;Comic Sans MS&quot;&gt;Aggregated Model&lt;/font&gt;" style="text;html=1;whiteSpace=wrap;strokeColor=none;fillColor=none;align=center;verticalAlign=middle;rounded=0;" vertex="1" parent="1">
          <mxGeometry x="620" y="270" width="120" height="30" as="geometry" />
        </mxCell>
        <mxCell id="vRwU5_9lx7jZgL3S7Ofa-449" value="&lt;font face=&quot;Comic Sans MS&quot;&gt;Knowledge database&lt;/font&gt;" style="text;html=1;whiteSpace=wrap;strokeColor=none;fillColor=none;align=center;verticalAlign=middle;rounded=0;" vertex="1" parent="1">
          <mxGeometry x="920" y="215" width="60" height="30" as="geometry" />
        </mxCell>
        <mxCell id="vRwU5_9lx7jZgL3S7Ofa-450" value="&lt;font face=&quot;Comic Sans MS&quot;&gt;LLM&lt;/font&gt;" style="text;html=1;whiteSpace=wrap;strokeColor=none;fillColor=none;align=center;verticalAlign=middle;rounded=0;" vertex="1" parent="1">
          <mxGeometry x="1125" y="210" width="60" height="30" as="geometry" />
        </mxCell>
        <mxCell id="vRwU5_9lx7jZgL3S7Ofa-452" value="&lt;font face=&quot;Comic Sans MS&quot;&gt;Optional&lt;/font&gt;" style="text;html=1;whiteSpace=wrap;strokeColor=none;fillColor=none;align=center;verticalAlign=middle;rounded=0;" vertex="1" parent="1">
          <mxGeometry x="1030" y="130" width="60" height="30" as="geometry" />
        </mxCell>
        <mxCell id="vRwU5_9lx7jZgL3S7Ofa-456" value="" style="edgeStyle=elbowEdgeStyle;fontSize=12;html=1;endArrow=blockThin;endFill=1;rounded=0;entryX=0;entryY=0.5;entryDx=0;entryDy=0;entryPerimeter=0;" edge="1" parent="1" target="vRwU5_9lx7jZgL3S7Ofa-5">
          <mxGeometry width="160" relative="1" as="geometry">
            <mxPoint x="805" y="224.76" as="sourcePoint" />
            <mxPoint x="920" y="225" as="targetPoint" />
          </mxGeometry>
        </mxCell>
        <mxCell id="vRwU5_9lx7jZgL3S7Ofa-457" value="" style="edgeStyle=elbowEdgeStyle;fontSize=12;html=1;endArrow=blockThin;endFill=1;rounded=0;entryX=0;entryY=0.5;entryDx=0;entryDy=0;entryPerimeter=0;" edge="1" parent="1">
          <mxGeometry width="160" relative="1" as="geometry">
            <mxPoint x="985" y="224.76" as="sourcePoint" />
            <mxPoint x="1095" y="225" as="targetPoint" />
          </mxGeometry>
        </mxCell>
        <mxCell id="vRwU5_9lx7jZgL3S7Ofa-459" value="" style="edgeStyle=elbowEdgeStyle;fontSize=12;html=1;endArrow=blockThin;endFill=1;rounded=0;entryX=0;entryY=0.5;entryDx=0;entryDy=0;entryPerimeter=0;dashed=1;" edge="1" parent="1">
          <mxGeometry width="160" relative="1" as="geometry">
            <mxPoint x="1095" y="240.24" as="sourcePoint" />
            <mxPoint x="985" y="240" as="targetPoint" />
          </mxGeometry>
        </mxCell>
        <mxCell id="vRwU5_9lx7jZgL3S7Ofa-461" value="&lt;font face=&quot;Comic Sans MS&quot;&gt;API&lt;/font&gt;" style="text;html=1;whiteSpace=wrap;strokeColor=none;fillColor=none;align=center;verticalAlign=middle;rounded=0;" vertex="1" parent="1">
          <mxGeometry x="1000" y="195" width="60" height="30" as="geometry" />
        </mxCell>
        <mxCell id="vRwU5_9lx7jZgL3S7Ofa-462" value="&lt;font face=&quot;Comic Sans MS&quot;&gt;Store and UPdata&lt;/font&gt;" style="text;html=1;whiteSpace=wrap;strokeColor=none;fillColor=none;align=center;verticalAlign=middle;rounded=0;" vertex="1" parent="1">
          <mxGeometry x="1000" y="242.5" width="60" height="30" as="geometry" />
        </mxCell>
        <mxCell id="vRwU5_9lx7jZgL3S7Ofa-463" value="&lt;font face=&quot;Comic Sans MS&quot;&gt;Query&lt;/font&gt;" style="text;html=1;whiteSpace=wrap;strokeColor=none;fillColor=none;align=center;verticalAlign=middle;rounded=0;" vertex="1" parent="1">
          <mxGeometry x="820" y="195" width="60" height="30" as="geometry" />
        </mxCell>
        <mxCell id="vRwU5_9lx7jZgL3S7Ofa-464" value="&lt;span style=&quot;color: rgb(77, 77, 76); font-family: berkeleyMono, ui-monospace, SFMono-Regular, monospace; font-size: 14px; letter-spacing: 0.08px; text-align: right; white-space-collapse: preserve; background-color: rgb(255, 255, 255);&quot;&gt; Local prototype updates&lt;/span&gt;" style="text;html=1;whiteSpace=wrap;strokeColor=none;fillColor=none;align=center;verticalAlign=middle;rounded=0;rotation=-35;" vertex="1" parent="1">
          <mxGeometry x="270" y="370" width="200" height="30" as="geometry" />
        </mxCell>
        <mxCell id="vRwU5_9lx7jZgL3S7Ofa-466" value="&lt;span style=&quot;color: rgb(77, 77, 76); font-family: berkeleyMono, ui-monospace, SFMono-Regular, monospace; font-size: 14px; letter-spacing: 0.08px; text-align: right; white-space-collapse: preserve; background-color: rgb(255, 255, 255);&quot;&gt; Global prototype updates&lt;/span&gt;" style="text;html=1;whiteSpace=wrap;strokeColor=none;fillColor=none;align=center;verticalAlign=middle;rounded=0;rotation=-35;" vertex="1" parent="1">
          <mxGeometry x="319.9988509741649" y="400.0049242994395" width="200" height="30" as="geometry" />
        </mxCell>
      </root>
    </mxGraphModel>
  </diagram>
</mxfile>
